<svg width="182" height="18" viewBox="0 0 182 18" fill="none" xmlns="http://www.w3.org/2000/svg">
<path d="M3.24805 17.4629C2.9082 17.4629 2.57422 17.3926 2.24609 17.252C1.91797 17.123 1.625 16.9355 1.36719 16.6895C1.10938 16.4434 0.904297 16.1387 0.751953 15.7754C0.599609 15.4238 0.535156 15.0195 0.558594 14.5625C0.59375 13.7656 0.751953 13.0273 1.0332 12.3477C1.31445 11.668 1.64258 11.082 2.01758 10.5898C2.39258 10.0977 2.77344 9.7168 3.16016 9.44727C3.54688 9.16602 3.86914 9.02539 4.12695 9.02539C4.29102 9.02539 4.4375 9.08398 4.56641 9.20117C4.70703 9.30664 4.8125 9.44727 4.88281 9.62305C4.96484 9.78711 5.01172 9.97461 5.02344 10.1855C5.04688 10.3848 5.02344 10.5781 4.95312 10.7656C4.83594 10.6836 4.61914 10.7129 4.30273 10.8535C3.98633 10.9941 3.6582 11.2344 3.31836 11.5742C2.97852 11.9023 2.67383 12.3125 2.4043 12.8047C2.13477 13.2969 1.98242 13.8477 1.94727 14.457C1.92383 14.8555 1.94141 15.1953 2 15.4766C2.07031 15.7578 2.16406 15.9863 2.28125 16.1621C2.41016 16.3379 2.55078 16.4668 2.70312 16.5488C2.86719 16.6309 3.03711 16.6719 3.21289 16.6719C3.63477 16.6719 4.02148 16.5137 4.37305 16.1973C4.72461 15.8809 5.04688 15.4355 5.33984 14.8613C5.63281 14.2988 5.9082 13.625 6.16602 12.8398C6.42383 12.043 6.66992 11.1641 6.9043 10.2031C6.97461 9.91016 7.0625 9.54688 7.16797 9.11328C7.28516 8.67969 7.4082 8.21094 7.53711 7.70703C7.66602 7.19141 7.80078 6.66406 7.94141 6.125C8.09375 5.57422 8.23438 5.05273 8.36328 4.56055C8.49219 4.05664 8.61523 3.59375 8.73242 3.17188C8.84961 2.73828 8.94336 2.38672 9.01367 2.11719C8.62695 2.11719 8.24023 2.14063 7.85352 2.1875C7.52539 2.22266 7.18555 2.27539 6.83398 2.3457C6.48242 2.4043 6.18945 2.48633 5.95508 2.5918C5.93164 2.58008 5.91406 2.55078 5.90234 2.50391C5.89062 2.44531 5.87891 2.38672 5.86719 2.32812C5.85547 2.25781 5.84375 2.18164 5.83203 2.09961C5.82031 2.00586 5.82031 1.91211 5.83203 1.81836C5.84375 1.73633 5.85547 1.64844 5.86719 1.55469C5.87891 1.44922 5.90234 1.34375 5.9375 1.23828C6.24219 1.14453 6.59375 1.07422 6.99219 1.02734C7.40234 0.96875 7.7832 0.927734 8.13477 0.904297C8.54492 0.869141 8.9668 0.851562 9.40039 0.851562C9.7168 0.851562 10.0449 0.869141 10.3848 0.904297C10.6777 0.927734 11.0059 0.962891 11.3691 1.00977C11.7324 1.05664 12.0957 1.12695 12.459 1.2207C12.541 1.30273 12.5938 1.39648 12.6172 1.50195C12.6289 1.54883 12.6348 1.60156 12.6348 1.66016C12.6348 1.75391 12.6172 1.8418 12.582 1.92383C12.5586 1.99414 12.5176 2.07031 12.459 2.15234C12.4121 2.22266 12.3477 2.28125 12.2656 2.32812C12.1367 2.29297 11.9727 2.26953 11.7734 2.25781C11.5859 2.23437 11.3984 2.21094 11.2109 2.1875C11 2.16406 10.7773 2.14648 10.543 2.13477L8.67969 10.4316C8.63281 10.6309 8.55078 10.9473 8.43359 11.3809C8.31641 11.8027 8.15234 12.2773 7.94141 12.8047C7.74219 13.3203 7.49609 13.8535 7.20312 14.4043C6.92188 14.9551 6.58789 15.4531 6.20117 15.8984C5.81445 16.3555 5.375 16.7305 4.88281 17.0234C4.39062 17.3164 3.8457 17.4629 3.24805 17.4629ZM16.2207 11.2051C16.1035 11.6504 15.9453 12.0664 15.7461 12.4531C15.5469 12.8398 15.3066 13.1738 15.0254 13.4551C14.7559 13.7363 14.4453 13.9531 14.0938 14.1055C13.7539 14.2695 13.3789 14.3516 12.9688 14.3516C12.4883 14.3516 12.1074 14.2461 11.8262 14.0352C11.5566 13.8359 11.3516 13.584 11.2109 13.2793C11.082 12.9746 11.0059 12.6406 10.9824 12.2773C10.9473 11.9141 10.9297 11.5742 10.9297 11.2578C10.9297 11.0352 10.959 10.7891 11.0176 10.5195C11.0645 10.25 11.1348 9.97461 11.2285 9.69336C11.3223 9.41211 11.4395 9.13086 11.5801 8.84961C11.7324 8.56836 11.9082 8.31055 12.1074 8.07617C12.1777 7.87695 12.2832 7.70117 12.4238 7.54883C12.5762 7.39648 12.7461 7.27344 12.9336 7.17969C13.1328 7.07422 13.3438 6.99805 13.5664 6.95117C13.7891 6.89258 14.0059 6.86328 14.2168 6.86328C14.252 6.86328 14.2812 6.86914 14.3047 6.88086C14.3398 6.89258 14.375 6.9043 14.4102 6.91602C14.5625 6.92773 14.75 6.98633 14.9727 7.0918C15.207 7.19727 15.4297 7.35547 15.6406 7.56641C15.8633 7.77734 16.0508 8.04688 16.2031 8.375C16.3555 8.69141 16.4316 9.07812 16.4316 9.53516C16.4316 9.62891 16.4258 9.74609 16.4141 9.88672C16.4023 10.0156 16.3906 10.127 16.3789 10.2207C16.6484 10.1152 16.9297 9.98633 17.2227 9.83398C17.5156 9.68164 17.7969 9.52344 18.0664 9.35938C18.3477 9.18359 18.6055 9.00781 18.8398 8.83203C19.0742 8.65625 19.2617 8.49805 19.4023 8.35742C19.5195 8.25195 19.6191 8.19336 19.7012 8.18164C19.7832 8.16992 19.8418 8.19336 19.877 8.25195C19.9121 8.31055 19.918 8.39258 19.8945 8.49805C19.8711 8.60352 19.8066 8.7207 19.7012 8.84961C19.6426 8.91992 19.4902 9.06055 19.2441 9.27148C19.0098 9.48242 18.7285 9.71094 18.4004 9.95703C18.0723 10.2031 17.7148 10.4434 17.3281 10.6777C16.9414 10.9121 16.5723 11.0879 16.2207 11.2051ZM13.25 8.5332C13.2148 8.63867 13.1973 8.75 13.1973 8.86719C13.1973 9.05469 13.209 9.25391 13.2324 9.46484C13.2559 9.66406 13.3145 9.8457 13.4082 10.0098C13.502 10.1738 13.6484 10.3145 13.8477 10.4316C14.0586 10.5371 14.3457 10.5898 14.709 10.5898C14.7676 10.5898 14.8262 10.5898 14.8848 10.5898C14.9434 10.5781 15.002 10.5664 15.0605 10.5547C15.0957 10.4023 15.125 10.2676 15.1484 10.1504C15.1836 10.0215 15.2012 9.91016 15.2012 9.81641C15.2246 9.59375 15.2246 9.36523 15.2012 9.13086C15.1777 8.89648 15.1309 8.68555 15.0605 8.49805C15.002 8.29883 14.9199 8.14062 14.8145 8.02344C14.7207 7.89453 14.6035 7.83008 14.4629 7.83008C14.2402 7.83008 14.0234 7.89453 13.8125 8.02344C13.6133 8.14062 13.4258 8.31055 13.25 8.5332ZM12.125 11.627C12.125 11.8379 12.1367 12.0488 12.1602 12.2598C12.1836 12.459 12.2305 12.6406 12.3008 12.8047C12.3711 12.957 12.4648 13.0859 12.582 13.1914C12.6992 13.2852 12.8516 13.332 13.0391 13.332C13.25 13.332 13.4434 13.2852 13.6191 13.1914C13.7949 13.0859 13.9531 12.957 14.0938 12.8047C14.2344 12.6406 14.3574 12.459 14.4629 12.2598C14.5801 12.0488 14.6797 11.832 14.7617 11.6094C14.6797 11.6211 14.5977 11.6328 14.5156 11.6445C14.4453 11.6445 14.3633 11.6445 14.2695 11.6445C13.8242 11.6445 13.4375 11.5156 13.1094 11.2578C12.793 10.9883 12.5469 10.6484 12.3711 10.2383C12.3008 10.4844 12.2422 10.7246 12.1953 10.959C12.1484 11.1934 12.125 11.416 12.125 11.627ZM23.3223 14.4395C23.0527 14.4395 22.8184 14.3867 22.6191 14.2812C22.4316 14.1875 22.2793 14.0586 22.1621 13.8945C22.0449 13.7305 21.9688 13.543 21.9336 13.332C21.8984 13.1094 21.9102 12.875 21.9688 12.6289C22.0039 12.4648 22.0625 12.248 22.1445 11.9785C22.2266 11.6973 22.3086 11.3984 22.3906 11.082C22.4844 10.7539 22.5664 10.4316 22.6367 10.1152C22.7188 9.78711 22.7715 9.49414 22.7949 9.23633C22.8184 8.9668 22.8066 8.75 22.7598 8.58594C22.7129 8.41016 22.6133 8.32227 22.4609 8.32227C22.2734 8.32227 22.0801 8.38672 21.8809 8.51562C21.6816 8.63281 21.4766 8.79688 21.2656 9.00781C21.0664 9.21875 20.8613 9.46484 20.6504 9.74609C20.4512 10.0156 20.252 10.2969 20.0527 10.5898C19.9473 10.9883 19.8594 11.3398 19.7891 11.6445C19.7188 11.9375 19.6543 12.207 19.5957 12.4531C19.5488 12.6875 19.502 12.8984 19.4551 13.0859C19.4082 13.2617 19.3672 13.4316 19.332 13.5957C19.2969 13.7129 19.1914 13.8301 19.0156 13.9473C18.8398 14.0527 18.6523 14.1406 18.4531 14.2109C18.2539 14.2812 18.084 14.3164 17.9434 14.3164C17.791 14.3164 17.7266 14.2637 17.75 14.1582C17.7617 14.0879 17.8027 13.9297 17.873 13.6836C17.9316 13.4375 18.0078 13.1504 18.1016 12.8223C18.1836 12.4824 18.2715 12.125 18.3652 11.75C18.459 11.375 18.5469 11.0176 18.6289 10.6777C18.6875 10.4082 18.752 10.1094 18.8223 9.78125C18.8809 9.5 18.9512 9.17188 19.0332 8.79688C19.127 8.42188 19.2324 8.01172 19.3496 7.56641C19.4316 7.49609 19.5137 7.44336 19.5957 7.4082C19.6895 7.36133 19.7832 7.32617 19.877 7.30273C19.9707 7.26758 20.0703 7.24414 20.1758 7.23242C20.2695 7.23242 20.3633 7.23828 20.457 7.25C20.5391 7.26172 20.6211 7.28516 20.7031 7.32031C20.7969 7.34375 20.8789 7.38477 20.9492 7.44336C20.9141 7.52539 20.873 7.64258 20.8262 7.79492C20.7793 7.93555 20.7324 8.08789 20.6855 8.25195C20.6387 8.43945 20.5801 8.63281 20.5098 8.83203C20.6621 8.62109 20.832 8.41016 21.0195 8.19922C21.2188 7.97656 21.4297 7.77734 21.6523 7.60156C21.8867 7.42578 22.1328 7.28516 22.3906 7.17969C22.6484 7.0625 22.9121 7.00391 23.1816 7.00391C23.4043 7.00391 23.6035 7.06836 23.7793 7.19727C23.9551 7.32617 24.0898 7.50781 24.1836 7.74219C24.2891 7.96484 24.3477 8.23438 24.3594 8.55078C24.3828 8.86719 24.3418 9.21289 24.2363 9.58789L24.043 10.3613C23.9844 10.6074 23.9082 10.9004 23.8145 11.2402C23.7324 11.5684 23.627 11.9316 23.498 12.3301C23.4277 12.5879 23.3984 12.8105 23.4102 12.998C23.4336 13.1855 23.5508 13.2793 23.7617 13.2793C23.9727 13.2793 24.2363 13.1504 24.5527 12.8926C24.8809 12.6348 25.209 12.3242 25.5371 11.9609C25.8652 11.5977 26.1758 11.2285 26.4688 10.8535C26.7617 10.4668 26.9844 10.1562 27.1367 9.92188C27.2422 9.76953 27.3418 9.66992 27.4355 9.62305C27.5293 9.57617 27.5996 9.57031 27.6465 9.60547C27.7051 9.64062 27.7344 9.72266 27.7344 9.85156C27.7344 9.96875 27.6875 10.1211 27.5938 10.3086C27.5117 10.4727 27.3828 10.6895 27.207 10.959C27.043 11.2285 26.8438 11.5156 26.6094 11.8203C26.375 12.125 26.123 12.4355 25.8535 12.752C25.584 13.0566 25.3027 13.3379 25.0098 13.5957C24.7168 13.8418 24.4238 14.041 24.1309 14.1934C23.8496 14.3574 23.5801 14.4395 23.3223 14.4395ZM35.4336 10.502C35.2695 10.7363 35.0586 11.0293 34.8008 11.3809C34.543 11.7207 34.2734 12.0664 33.9922 12.418C33.7227 12.7578 33.4531 13.0742 33.1836 13.3672C32.9258 13.6484 32.709 13.8477 32.5332 13.9648C32.416 14.0352 32.2812 14.0938 32.1289 14.1406C31.9766 14.1875 31.8184 14.2168 31.6543 14.2285C31.502 14.2402 31.3555 14.2285 31.2148 14.1934C31.0742 14.1699 30.9512 14.123 30.8457 14.0527C30.7402 13.9707 30.6523 13.8535 30.582 13.7012C30.5234 13.5723 30.4648 13.4023 30.4062 13.1914C30.3594 12.9805 30.3418 12.7168 30.3535 12.4004C30.0723 12.8691 29.7617 13.2324 29.4219 13.4902C29.082 13.7363 28.7598 13.918 28.4551 14.0352C28.1035 14.1641 27.752 14.2402 27.4004 14.2637C27.2363 14.2637 27.0605 14.2051 26.873 14.0879C26.6855 13.9824 26.5273 13.8125 26.3984 13.5781C26.2695 13.332 26.1875 13.0215 26.1523 12.6465C26.1172 12.2598 26.1641 11.8027 26.293 11.2754C26.457 10.5605 26.7148 9.91016 27.0664 9.32422C27.4297 8.73828 27.8223 8.24023 28.2441 7.83008C28.666 7.4082 29.082 7.0918 29.4922 6.88086C29.9023 6.66992 30.2422 6.57617 30.5117 6.59961C30.8281 6.6582 31.0859 6.75195 31.2852 6.88086C31.4492 6.99805 31.5547 7.17383 31.6016 7.4082C31.6602 7.63086 31.5664 7.92969 31.3203 8.30469C31.4844 8.26953 31.6191 8.24609 31.7246 8.23438C31.8418 8.22266 31.9297 8.2168 31.9883 8.2168C32.0586 8.2168 32.1055 8.22266 32.1289 8.23438C32.1406 8.25781 32.1465 8.31055 32.1465 8.39258C32.1465 8.46289 32.1289 8.59766 32.0938 8.79688C32.0586 8.99609 32.0059 9.26562 31.9355 9.60547C31.8652 9.94531 31.7715 10.3848 31.6543 10.9238C31.6309 11.0293 31.6074 11.1289 31.584 11.2227C31.5723 11.3047 31.5547 11.3926 31.5312 11.4863C31.5195 11.5684 31.502 11.668 31.4785 11.7852C31.4551 11.9023 31.4258 12.0488 31.3906 12.2246C31.3789 12.3301 31.373 12.4473 31.373 12.5762C31.3848 12.6934 31.4082 12.8047 31.4434 12.9102C31.4785 13.0156 31.5312 13.1035 31.6016 13.1738C31.6836 13.2324 31.7949 13.2617 31.9355 13.2617C32.0527 13.2617 32.2051 13.1914 32.3926 13.0508C32.5801 12.8984 32.7793 12.7109 32.9902 12.4883C33.2012 12.2539 33.418 12.002 33.6406 11.7324C33.875 11.4512 34.0918 11.1816 34.291 10.9238C34.4902 10.666 34.666 10.4375 34.8184 10.2383C34.9824 10.0391 35.0996 9.89258 35.1699 9.79883C35.2637 9.69336 35.3574 9.63477 35.4512 9.62305C35.5449 9.59961 35.6152 9.62305 35.6621 9.69336C35.709 9.76367 35.7148 9.86914 35.6797 10.0098C35.6562 10.1504 35.5742 10.3145 35.4336 10.502ZM30.2832 11.2754C30.3418 11.041 30.4121 10.7656 30.4941 10.4492C30.5762 10.1328 30.6465 9.82812 30.7051 9.53516C30.7637 9.24219 30.8047 9.00195 30.8281 8.81445C30.8633 8.61523 30.8574 8.52148 30.8105 8.5332C30.752 8.54492 30.6875 8.5625 30.6172 8.58594C30.5586 8.60938 30.4824 8.62695 30.3887 8.63867C30.2949 8.65039 30.2012 8.66797 30.1074 8.69141C30.2012 8.50391 30.2539 8.35156 30.2656 8.23438C30.2891 8.10547 30.2949 8.00586 30.2832 7.93555C30.2715 7.85352 30.248 7.78906 30.2129 7.74219C30.084 7.63672 29.8555 7.72461 29.5273 8.00586C29.2109 8.27539 28.8418 8.7793 28.4199 9.51758C28.2441 9.82227 28.1035 10.1504 27.998 10.502C27.8926 10.8418 27.8164 11.1641 27.7695 11.4688C27.7344 11.7734 27.7285 12.043 27.752 12.2773C27.7754 12.5 27.8223 12.6465 27.8926 12.7168C28.0215 12.8457 28.168 12.9102 28.332 12.9102C28.4961 12.8984 28.6602 12.8516 28.8242 12.7695C29 12.6758 29.1699 12.5586 29.334 12.418C29.5098 12.2773 29.6621 12.1309 29.791 11.9785C29.9316 11.8262 30.043 11.6855 30.125 11.5566C30.2188 11.4277 30.2715 11.334 30.2832 11.2754ZM40.7422 9.55273C40.7891 9.48242 40.8477 9.44141 40.918 9.42969C41 9.40625 41.0645 9.41211 41.1113 9.44727C41.1582 9.48242 41.1816 9.54102 41.1816 9.62305C41.1934 9.70508 41.1641 9.81641 41.0938 9.95703C40.8594 10.4023 40.5488 10.8828 40.1621 11.3984C39.7871 11.9141 39.3887 12.4004 38.9668 12.8574C38.5449 13.3027 38.1348 13.6719 37.7363 13.9648C37.3379 14.2578 37.0039 14.4043 36.7344 14.4043C36.3477 14.4043 36.0254 14.3281 35.7676 14.1758C35.5098 14.0234 35.3047 13.8359 35.1523 13.6133C35.0117 13.3906 34.9121 13.1504 34.8535 12.8926C34.7949 12.623 34.7773 12.377 34.8008 12.1543C34.8125 11.9668 34.8535 11.6328 34.9238 11.1523C34.9941 10.6602 35.0879 10.0977 35.2051 9.46484C35.3223 8.82031 35.4512 8.13477 35.5918 7.4082C35.7441 6.66992 35.9023 5.96094 36.0664 5.28125C35.8672 5.30469 35.668 5.32812 35.4688 5.35156C35.2695 5.375 35.0879 5.38672 34.9238 5.38672C34.5488 5.38672 34.1973 5.3457 33.8691 5.26367C33.5293 5.16992 33.2773 5.08203 33.1133 5C33.0195 4.95313 32.9785 4.88867 32.9902 4.80664C33.002 4.71289 33.0371 4.625 33.0957 4.54297C33.1543 4.44922 33.2305 4.37305 33.3242 4.31445C33.4062 4.24414 33.4824 4.20898 33.5527 4.20898C33.7754 4.23242 34.0156 4.25586 34.2734 4.2793C34.5312 4.29102 34.8125 4.29102 35.1172 4.2793C35.3398 4.26758 35.5508 4.25 35.75 4.22656C35.9609 4.20312 36.166 4.17383 36.3652 4.13867C36.5176 3.57617 36.6641 3.08984 36.8047 2.67969C36.957 2.25781 37.0918 1.96484 37.209 1.80078C37.2441 1.74219 37.3203 1.69531 37.4375 1.66016C37.5664 1.61328 37.7012 1.58398 37.8418 1.57227C37.9824 1.54883 38.1172 1.54883 38.2461 1.57227C38.375 1.58398 38.4688 1.625 38.5273 1.69531C38.5859 1.78906 38.6094 2.0293 38.5977 2.41602C38.5859 2.80273 38.5215 3.29492 38.4043 3.89258C38.8965 3.89258 39.3301 3.92187 39.7051 3.98047C40.0918 4.02734 40.4199 4.08594 40.6895 4.15625C40.959 4.21484 41.1758 4.2793 41.3398 4.34961C41.5039 4.4082 41.627 4.44922 41.709 4.47266C41.791 4.49609 41.832 4.55469 41.832 4.64844C41.8438 4.74219 41.8262 4.8418 41.7793 4.94727C41.7441 5.04102 41.6797 5.12305 41.5859 5.19336C41.4922 5.26367 41.3867 5.28711 41.2695 5.26367C41.1523 5.25195 41.0176 5.22852 40.8652 5.19336C40.7246 5.1582 40.5488 5.12891 40.3379 5.10547C40.1387 5.08203 39.8984 5.05859 39.6172 5.03516C39.3359 5.01172 39.0078 5 38.6328 5C38.5625 5 38.4805 5.00586 38.3867 5.01758C38.3047 5.01758 38.2168 5.01758 38.123 5.01758C38.0762 5.20508 38.0293 5.39258 37.9824 5.58008C37.9473 5.75586 37.8945 5.94336 37.8242 6.14258C37.6719 6.61133 37.4961 7.12109 37.2969 7.67188C37.1211 8.15234 36.9102 8.70312 36.6641 9.32422C36.418 9.94531 36.1426 10.6074 35.8379 11.3105C35.7676 11.8145 35.7734 12.2012 35.8555 12.4707C35.9492 12.7285 36.0605 12.916 36.1895 13.0332C36.3418 13.1621 36.5293 13.2324 36.752 13.2441C36.9277 13.2676 37.1387 13.209 37.3848 13.0684C37.6426 12.916 37.9062 12.7168 38.1758 12.4707C38.4453 12.2246 38.7148 11.9551 38.9844 11.6621C39.2656 11.3691 39.5234 11.082 39.7578 10.8008C39.9922 10.5195 40.1973 10.2676 40.373 10.0449C40.5488 9.81055 40.6719 9.64648 40.7422 9.55273ZM48.7578 10.1328C48.8398 10.0391 48.9219 9.99219 49.0039 9.99219C49.0977 9.98047 49.168 10.0039 49.2148 10.0625C49.2734 10.1094 49.2969 10.1855 49.2852 10.291C49.2852 10.3965 49.2383 10.5137 49.1445 10.6426C48.9219 10.9473 48.6641 11.2637 48.3711 11.5918C48.0781 11.9082 47.7617 12.2188 47.4219 12.5234C47.0938 12.8281 46.7598 13.1152 46.4199 13.3848C46.0801 13.6543 45.752 13.877 45.4355 14.0527C45.084 14.252 44.7852 14.3516 44.5391 14.3516C44.3047 14.3516 44.0703 14.1992 43.8359 13.8945C43.625 13.625 43.5195 13.3379 43.5195 13.0332C43.5312 12.7168 43.6016 12.3242 43.7305 11.8555C43.8125 11.5625 43.9238 11.2168 44.0645 10.8184C44.2168 10.4082 44.334 10.0156 44.416 9.64062C44.5098 9.26562 44.5391 8.94922 44.5039 8.69141C44.4688 8.42188 44.3164 8.28711 44.0469 8.28711C43.8594 8.28711 43.6543 8.35156 43.4316 8.48047C43.2207 8.60938 43.0039 8.7793 42.7812 8.99023C42.5703 9.18945 42.3652 9.41797 42.166 9.67578C41.9668 9.93359 41.791 10.1855 41.6387 10.4316C41.5449 10.8887 41.4512 11.3398 41.3574 11.7852C41.2754 12.1602 41.1875 12.5703 41.0938 13.0156C41.0117 13.4492 40.9297 13.8359 40.8477 14.1758C40.7773 14.2344 40.7012 14.2754 40.6191 14.2988C40.5371 14.3223 40.4609 14.334 40.3906 14.334C40.3086 14.334 40.2266 14.3281 40.1445 14.3164C40.0508 14.293 39.9629 14.2578 39.8809 14.2109C39.8105 14.1641 39.7402 14.0996 39.6699 14.0176C39.5996 13.9473 39.5469 13.8477 39.5117 13.7188C40.0391 11.5508 40.4551 9.81055 40.7598 8.49805C41.0645 7.18555 41.2988 6.18359 41.4629 5.49219C41.6504 4.67188 41.7793 4.10352 41.8496 3.78711C41.8848 3.56445 41.9141 3.34766 41.9375 3.13672C41.9609 2.94922 41.9727 2.75586 41.9727 2.55664C41.9727 2.35742 41.9551 2.17578 41.9199 2.01172C42.0137 1.95312 42.1133 1.90625 42.2188 1.87109C42.3359 1.83594 42.4473 1.80664 42.5527 1.7832C42.6816 1.74805 42.8105 1.71875 42.9395 1.69531C43.0684 1.67187 43.1855 1.66016 43.291 1.66016C43.3848 1.66016 43.4727 1.67187 43.5547 1.69531C43.6367 1.70703 43.6895 1.74219 43.7129 1.80078C43.7832 1.85938 43.8125 1.97656 43.8008 2.15234C43.8008 2.32812 43.7891 2.50977 43.7656 2.69727C43.7188 2.91992 43.666 3.16016 43.6074 3.41797C43.3613 4.36719 43.0859 5.29297 42.7812 6.19531C42.4766 7.08594 42.1953 8.04102 41.9375 9.06055C42.0898 8.82617 42.2715 8.58594 42.4824 8.33984C42.6934 8.09375 42.9219 7.87109 43.168 7.67188C43.4258 7.46094 43.6953 7.29102 43.9766 7.16211C44.2578 7.02148 44.5566 6.95117 44.873 6.95117C45.0371 6.95117 45.1895 6.98047 45.3301 7.03906C45.4824 7.08594 45.6113 7.17383 45.7168 7.30273C45.834 7.41992 45.9219 7.58398 45.9805 7.79492C46.0391 7.99414 46.0625 8.24609 46.0508 8.55078C46.0508 8.73828 46.0273 8.93164 45.9805 9.13086C45.9453 9.33008 45.8926 9.55273 45.8223 9.79883C45.752 10.0332 45.6582 10.2969 45.541 10.5898C45.4355 10.8828 45.3066 11.2227 45.1543 11.6094C45.0488 11.8789 44.9668 12.1074 44.9082 12.2949C44.8496 12.4824 44.8613 12.6465 44.9434 12.7871C45.0488 12.9746 45.2539 13.0215 45.5586 12.9277C45.875 12.8223 46.3438 12.5176 46.9648 12.0137C47.1055 11.8965 47.2637 11.75 47.4395 11.5742C47.6152 11.3984 47.7852 11.2227 47.9492 11.0469C48.1133 10.8594 48.2656 10.6836 48.4062 10.5195C48.5469 10.3555 48.6641 10.2266 48.7578 10.1328ZM57.0898 10.502C56.9258 10.7363 56.7148 11.0293 56.457 11.3809C56.1992 11.7207 55.9297 12.0664 55.6484 12.418C55.3789 12.7578 55.1094 13.0742 54.8398 13.3672C54.582 13.6484 54.3652 13.8477 54.1895 13.9648C54.0723 14.0352 53.9375 14.0938 53.7852 14.1406C53.6328 14.1875 53.4746 14.2168 53.3105 14.2285C53.1582 14.2402 53.0117 14.2285 52.8711 14.1934C52.7305 14.1699 52.6074 14.123 52.502 14.0527C52.3965 13.9707 52.3086 13.8535 52.2383 13.7012C52.1797 13.5723 52.1211 13.4023 52.0625 13.1914C52.0156 12.9805 51.998 12.7168 52.0098 12.4004C51.7285 12.8691 51.418 13.2324 51.0781 13.4902C50.7383 13.7363 50.416 13.918 50.1113 14.0352C49.7598 14.1641 49.4082 14.2402 49.0566 14.2637C48.8926 14.2637 48.7168 14.2051 48.5293 14.0879C48.3418 13.9824 48.1836 13.8125 48.0547 13.5781C47.9258 13.332 47.8438 13.0215 47.8086 12.6465C47.7734 12.2598 47.8203 11.8027 47.9492 11.2754C48.1133 10.5605 48.3711 9.91016 48.7227 9.32422C49.0859 8.73828 49.4785 8.24023 49.9004 7.83008C50.3223 7.4082 50.7383 7.0918 51.1484 6.88086C51.5586 6.66992 51.8984 6.57617 52.168 6.59961C52.4844 6.6582 52.7422 6.75195 52.9414 6.88086C53.1055 6.99805 53.2109 7.17383 53.2578 7.4082C53.3164 7.63086 53.2227 7.92969 52.9766 8.30469C53.1406 8.26953 53.2754 8.24609 53.3809 8.23438C53.498 8.22266 53.5859 8.2168 53.6445 8.2168C53.7148 8.2168 53.7617 8.22266 53.7852 8.23438C53.7969 8.25781 53.8027 8.31055 53.8027 8.39258C53.8027 8.46289 53.7852 8.59766 53.75 8.79688C53.7148 8.99609 53.6621 9.26562 53.5918 9.60547C53.5215 9.94531 53.4277 10.3848 53.3105 10.9238C53.2871 11.0293 53.2637 11.1289 53.2402 11.2227C53.2285 11.3047 53.2109 11.3926 53.1875 11.4863C53.1758 11.5684 53.1582 11.668 53.1348 11.7852C53.1113 11.9023 53.082 12.0488 53.0469 12.2246C53.0352 12.3301 53.0293 12.4473 53.0293 12.5762C53.041 12.6934 53.0645 12.8047 53.0996 12.9102C53.1348 13.0156 53.1875 13.1035 53.2578 13.1738C53.3398 13.2324 53.4512 13.2617 53.5918 13.2617C53.709 13.2617 53.8613 13.1914 54.0488 13.0508C54.2363 12.8984 54.4355 12.7109 54.6465 12.4883C54.8574 12.2539 55.0742 12.002 55.2969 11.7324C55.5312 11.4512 55.748 11.1816 55.9473 10.9238C56.1465 10.666 56.3223 10.4375 56.4746 10.2383C56.6387 10.0391 56.7559 9.89258 56.8262 9.79883C56.9199 9.69336 57.0137 9.63477 57.1074 9.62305C57.2012 9.59961 57.2715 9.62305 57.3184 9.69336C57.3652 9.76367 57.3711 9.86914 57.3359 10.0098C57.3125 10.1504 57.2305 10.3145 57.0898 10.502ZM51.9395 11.2754C51.998 11.041 52.0684 10.7656 52.1504 10.4492C52.2324 10.1328 52.3027 9.82812 52.3613 9.53516C52.4199 9.24219 52.4609 9.00195 52.4844 8.81445C52.5195 8.61523 52.5137 8.52148 52.4668 8.5332C52.4082 8.54492 52.3438 8.5625 52.2734 8.58594C52.2148 8.60938 52.1387 8.62695 52.0449 8.63867C51.9512 8.65039 51.8574 8.66797 51.7637 8.69141C51.8574 8.50391 51.9102 8.35156 51.9219 8.23438C51.9453 8.10547 51.9512 8.00586 51.9395 7.93555C51.9277 7.85352 51.9043 7.78906 51.8691 7.74219C51.7402 7.63672 51.5117 7.72461 51.1836 8.00586C50.8672 8.27539 50.498 8.7793 50.0762 9.51758C49.9004 9.82227 49.7598 10.1504 49.6543 10.502C49.5488 10.8418 49.4727 11.1641 49.4258 11.4688C49.3906 11.7734 49.3848 12.043 49.4082 12.2773C49.4316 12.5 49.4785 12.6465 49.5488 12.7168C49.6777 12.8457 49.8242 12.9102 49.9883 12.9102C50.1523 12.8984 50.3164 12.8516 50.4805 12.7695C50.6562 12.6758 50.8262 12.5586 50.9902 12.418C51.166 12.2773 51.3184 12.1309 51.4473 11.9785C51.5879 11.8262 51.6992 11.6855 51.7812 11.5566C51.875 11.4277 51.9277 11.334 51.9395 11.2754ZM61.1328 14.4395C60.8633 14.4395 60.6289 14.3867 60.4297 14.2812C60.2422 14.1875 60.0898 14.0586 59.9727 13.8945C59.8555 13.7305 59.7793 13.543 59.7441 13.332C59.709 13.1094 59.7207 12.875 59.7793 12.6289C59.8145 12.4648 59.873 12.248 59.9551 11.9785C60.0371 11.6973 60.1191 11.3984 60.2012 11.082C60.2949 10.7539 60.377 10.4316 60.4473 10.1152C60.5293 9.78711 60.582 9.49414 60.6055 9.23633C60.6289 8.9668 60.6172 8.75 60.5703 8.58594C60.5234 8.41016 60.4238 8.32227 60.2715 8.32227C60.084 8.32227 59.8906 8.38672 59.6914 8.51562C59.4922 8.63281 59.2871 8.79688 59.0762 9.00781C58.877 9.21875 58.6719 9.46484 58.4609 9.74609C58.2617 10.0156 58.0625 10.2969 57.8633 10.5898C57.7578 10.9883 57.6699 11.3398 57.5996 11.6445C57.5293 11.9375 57.4648 12.207 57.4062 12.4531C57.3594 12.6875 57.3125 12.8984 57.2656 13.0859C57.2188 13.2617 57.1777 13.4316 57.1426 13.5957C57.1074 13.7129 57.002 13.8301 56.8262 13.9473C56.6504 14.0527 56.4629 14.1406 56.2637 14.2109C56.0645 14.2812 55.8945 14.3164 55.7539 14.3164C55.6016 14.3164 55.5371 14.2637 55.5605 14.1582C55.5723 14.0879 55.6133 13.9297 55.6836 13.6836C55.7422 13.4375 55.8184 13.1504 55.9121 12.8223C55.9941 12.4824 56.082 12.125 56.1758 11.75C56.2695 11.375 56.3574 11.0176 56.4395 10.6777C56.498 10.4082 56.5625 10.1094 56.6328 9.78125C56.6914 9.5 56.7617 9.17188 56.8438 8.79688C56.9375 8.42188 57.043 8.01172 57.1602 7.56641C57.2422 7.49609 57.3242 7.44336 57.4062 7.4082C57.5 7.36133 57.5938 7.32617 57.6875 7.30273C57.7812 7.26758 57.8809 7.24414 57.9863 7.23242C58.0801 7.23242 58.1738 7.23828 58.2676 7.25C58.3496 7.26172 58.4316 7.28516 58.5137 7.32031C58.6074 7.34375 58.6895 7.38477 58.7598 7.44336C58.7246 7.52539 58.6836 7.64258 58.6367 7.79492C58.5898 7.93555 58.543 8.08789 58.4961 8.25195C58.4492 8.43945 58.3906 8.63281 58.3203 8.83203C58.4727 8.62109 58.6426 8.41016 58.8301 8.19922C59.0293 7.97656 59.2402 7.77734 59.4629 7.60156C59.6973 7.42578 59.9434 7.28516 60.2012 7.17969C60.459 7.0625 60.7227 7.00391 60.9922 7.00391C61.2148 7.00391 61.4141 7.06836 61.5898 7.19727C61.7656 7.32617 61.9004 7.50781 61.9941 7.74219C62.0996 7.96484 62.1582 8.23438 62.1699 8.55078C62.1934 8.86719 62.1523 9.21289 62.0469 9.58789L61.8535 10.3613C61.7949 10.6074 61.7188 10.9004 61.625 11.2402C61.543 11.5684 61.4375 11.9316 61.3086 12.3301C61.2383 12.5879 61.209 12.8105 61.2207 12.998C61.2441 13.1855 61.3613 13.2793 61.5723 13.2793C61.7832 13.2793 62.0469 13.1504 62.3633 12.8926C62.6914 12.6348 63.0195 12.3242 63.3477 11.9609C63.6758 11.5977 63.9863 11.2285 64.2793 10.8535C64.5723 10.4668 64.7949 10.1562 64.9473 9.92188C65.0527 9.76953 65.1523 9.66992 65.2461 9.62305C65.3398 9.57617 65.4102 9.57031 65.457 9.60547C65.5156 9.64062 65.5449 9.72266 65.5449 9.85156C65.5449 9.96875 65.498 10.1211 65.4043 10.3086C65.3223 10.4727 65.1934 10.6895 65.0176 10.959C64.8535 11.2285 64.6543 11.5156 64.4199 11.8203C64.1855 12.125 63.9336 12.4355 63.6641 12.752C63.3945 13.0566 63.1133 13.3379 62.8203 13.5957C62.5273 13.8418 62.2344 14.041 61.9414 14.1934C61.6602 14.3574 61.3906 14.4395 61.1328 14.4395ZM69.3418 16.2676C69.2363 16.1973 69.1836 16.1211 69.1836 16.0391C69.1719 15.957 69.1895 15.875 69.2363 15.793C69.2832 15.6992 69.3535 15.6055 69.4473 15.5117C69.541 15.4297 69.6523 15.2188 69.7812 14.8789C69.9102 14.5508 70.0449 14.1523 70.1855 13.6836C70.3379 13.2031 70.4844 12.6816 70.625 12.1191C70.7773 11.5566 70.918 11.0059 71.0469 10.4668C71.1758 9.92773 71.2871 9.42969 71.3809 8.97266C71.4746 8.51562 71.5449 8.15234 71.5918 7.88281C71.6504 7.55469 71.7148 7.19727 71.7852 6.81055C71.8438 6.4707 71.9082 6.07812 71.9785 5.63281C72.0488 5.17578 72.1133 4.67188 72.1719 4.12109L73.5781 3.48828C73.7773 3.39453 73.918 3.41797 74 3.55859C74.082 3.6875 74.082 3.96289 74 4.38477C73.9648 4.5957 73.9004 4.94141 73.8066 5.42188C73.7129 5.89062 73.6016 6.41211 73.4727 6.98633C73.3555 7.54883 73.2266 8.12891 73.0859 8.72656C72.957 9.3125 72.8281 9.83398 72.6992 10.291C72.582 10.7246 72.4473 11.2227 72.2949 11.7852C72.0254 12.7461 71.6504 14.0586 71.1699 15.7227C71.334 16.0039 71.6387 16.1445 72.084 16.1445C72.5762 16.1445 73.1445 15.957 73.7891 15.582C74.4453 15.207 75.0781 14.6445 75.6875 13.8945C76.2969 13.1445 76.8301 12.207 77.2871 11.082C77.7559 9.94531 78.0488 8.62109 78.166 7.10938C78.2246 6.28906 78.1836 5.56836 78.043 4.94727C77.9023 4.32617 77.6855 3.80469 77.3926 3.38281C77.1113 2.96094 76.7598 2.64453 76.3379 2.43359C75.9277 2.22266 75.4707 2.11719 74.9668 2.11719C73.7832 2.11719 72.5586 2.60938 71.293 3.59375L71.2051 2.13477C71.5098 1.79492 71.8555 1.53711 72.2422 1.36133C72.6406 1.17383 73.0098 1.0332 73.3496 0.939453C73.748 0.833984 74.1523 0.775391 74.5625 0.763672C75.3125 0.763672 76.0332 0.910156 76.7246 1.20312C77.4277 1.48438 78.0312 1.91797 78.5352 2.50391C79.0508 3.08984 79.4434 3.82813 79.7129 4.71875C79.9824 5.59766 80.0762 6.62891 79.9941 7.8125C79.9473 8.49219 79.8066 9.20117 79.5723 9.93945C79.3496 10.666 79.0508 11.3809 78.6758 12.084C78.3125 12.7871 77.8789 13.4551 77.375 14.0879C76.8711 14.7207 76.3203 15.2715 75.7227 15.7402C75.125 16.2207 74.4863 16.5957 73.8066 16.8652C73.127 17.1465 72.4238 17.2871 71.6973 17.2871C71.4746 17.2754 71.2344 17.2344 70.9766 17.1641C70.7539 17.1055 70.502 17.0059 70.2207 16.8652C69.9395 16.7246 69.6465 16.5254 69.3418 16.2676ZM82.8418 14.2812C82.3965 14.2812 82.0332 14.2109 81.752 14.0703C81.4707 13.9297 81.248 13.7598 81.084 13.5605C80.9316 13.3496 80.8203 13.127 80.75 12.8926C80.6914 12.6465 80.6621 12.4238 80.6621 12.2246C80.6621 11.873 80.6914 11.5039 80.75 11.1172C80.8086 10.7188 80.8789 10.3555 80.9609 10.0273C81.043 9.6875 81.1133 9.40039 81.1719 9.16602C81.2422 8.93164 81.2891 8.78516 81.3125 8.72656C81.418 8.38672 81.5527 8.09375 81.7168 7.84766C81.8926 7.58984 82.1328 7.41406 82.4375 7.32031C82.5547 7.29688 82.6777 7.27344 82.8066 7.25C82.9121 7.23828 83.0176 7.23242 83.123 7.23242C83.2402 7.23242 83.3457 7.25 83.4395 7.28516C83.123 8.09375 82.8711 8.76758 82.6836 9.30664C82.5078 9.8457 82.373 10.2852 82.2793 10.625C82.1738 11.0117 82.1094 11.3223 82.0859 11.5566C82.0273 12.084 82.0742 12.4824 82.2266 12.752C82.3789 13.0215 82.6895 13.1562 83.1582 13.1562C83.4629 13.1562 83.7559 13.0449 84.0371 12.8223C84.3184 12.5879 84.5762 12.2891 84.8105 11.9258C84.7754 11.7383 84.7578 11.5449 84.7578 11.3457C84.7578 10.9707 84.7871 10.6074 84.8457 10.2559C84.916 9.89258 84.9922 9.55859 85.0742 9.25391C85.168 8.9375 85.2617 8.65625 85.3555 8.41016C85.4609 8.16406 85.5488 7.9707 85.6191 7.83008C85.748 7.54883 85.8652 7.37891 85.9707 7.32031C86.0762 7.25 86.2461 7.20898 86.4805 7.19727C86.5742 7.18555 86.6504 7.18555 86.709 7.19727C86.7793 7.19727 86.8379 7.20312 86.8848 7.21484C87.0254 7.25 87.0957 7.32031 87.0957 7.42578C87.0957 7.61328 87.084 7.89453 87.0605 8.26953C87.0371 8.64453 86.9668 9.03125 86.8496 9.42969C86.7676 9.75781 86.6855 10.0391 86.6035 10.2734C86.5332 10.4961 86.4629 10.6895 86.3926 10.8535C86.3223 11.0059 86.252 11.1348 86.1816 11.2402C86.1113 11.334 86.0469 11.4219 85.9883 11.5039C86.0117 11.8555 86.041 12.1367 86.0762 12.3477C86.1113 12.5586 86.1523 12.7227 86.1992 12.8398C86.2578 12.9453 86.3223 13.0215 86.3926 13.0684C86.4746 13.1035 86.5625 13.1211 86.6562 13.1211C86.8203 13.1211 87.0137 13.0449 87.2363 12.8926C87.459 12.7285 87.6875 12.5293 87.9219 12.2949C88.168 12.0488 88.4082 11.7852 88.6426 11.5039C88.8887 11.2109 89.1113 10.9355 89.3105 10.6777C89.5098 10.4199 89.6797 10.1973 89.8203 10.0098C89.9609 9.81055 90.0488 9.6875 90.084 9.64062C90.166 9.53516 90.2422 9.4707 90.3125 9.44727C90.3945 9.42383 90.459 9.43555 90.5059 9.48242C90.5527 9.51758 90.5762 9.58203 90.5762 9.67578C90.5879 9.75781 90.5645 9.85156 90.5059 9.95703C90.2715 10.4023 89.9785 10.877 89.627 11.3809C89.2871 11.873 88.918 12.3301 88.5195 12.752C88.1328 13.1738 87.7402 13.5254 87.3418 13.8066C86.9434 14.0879 86.5684 14.2285 86.2168 14.2285C85.9004 14.2285 85.6484 14.123 85.4609 13.9121C85.2852 13.6895 85.1328 13.373 85.0039 12.9629C84.7344 13.3848 84.418 13.7129 84.0547 13.9473C83.6914 14.1699 83.2871 14.2812 82.8418 14.2812ZM98.1172 10.502C97.9531 10.7363 97.7422 11.0293 97.4844 11.3809C97.2266 11.7207 96.957 12.0664 96.6758 12.418C96.4062 12.7578 96.1367 13.0742 95.8672 13.3672C95.6094 13.6484 95.3926 13.8477 95.2168 13.9648C95.0996 14.0352 94.9648 14.0938 94.8125 14.1406C94.6602 14.1875 94.502 14.2168 94.3379 14.2285C94.1855 14.2402 94.0391 14.2285 93.8984 14.1934C93.7578 14.1699 93.6348 14.123 93.5293 14.0527C93.4238 13.9707 93.3359 13.8535 93.2656 13.7012C93.207 13.5723 93.1484 13.4023 93.0898 13.1914C93.043 12.9805 93.0254 12.7168 93.0371 12.4004C92.7559 12.8691 92.4453 13.2324 92.1055 13.4902C91.7656 13.7363 91.4434 13.918 91.1387 14.0352C90.7871 14.1641 90.4355 14.2402 90.084 14.2637C89.9199 14.2637 89.7441 14.2051 89.5566 14.0879C89.3691 13.9824 89.2109 13.8125 89.082 13.5781C88.9531 13.332 88.8711 13.0215 88.8359 12.6465C88.8008 12.2598 88.8477 11.8027 88.9766 11.2754C89.1406 10.5605 89.3984 9.91016 89.75 9.32422C90.1133 8.73828 90.5059 8.24023 90.9277 7.83008C91.3496 7.4082 91.7656 7.0918 92.1758 6.88086C92.5859 6.66992 92.9258 6.57617 93.1953 6.59961C93.5117 6.6582 93.7695 6.75195 93.9688 6.88086C94.1328 6.99805 94.2383 7.17383 94.2852 7.4082C94.3438 7.63086 94.25 7.92969 94.0039 8.30469C94.168 8.26953 94.3027 8.24609 94.4082 8.23438C94.5254 8.22266 94.6133 8.2168 94.6719 8.2168C94.7422 8.2168 94.7891 8.22266 94.8125 8.23438C94.8242 8.25781 94.8301 8.31055 94.8301 8.39258C94.8301 8.46289 94.8125 8.59766 94.7773 8.79688C94.7422 8.99609 94.6895 9.26562 94.6191 9.60547C94.5488 9.94531 94.4551 10.3848 94.3379 10.9238C94.3145 11.0293 94.291 11.1289 94.2676 11.2227C94.2559 11.3047 94.2383 11.3926 94.2148 11.4863C94.2031 11.5684 94.1855 11.668 94.1621 11.7852C94.1387 11.9023 94.1094 12.0488 94.0742 12.2246C94.0625 12.3301 94.0566 12.4473 94.0566 12.5762C94.0684 12.6934 94.0918 12.8047 94.127 12.9102C94.1621 13.0156 94.2148 13.1035 94.2852 13.1738C94.3672 13.2324 94.4785 13.2617 94.6191 13.2617C94.7363 13.2617 94.8887 13.1914 95.0762 13.0508C95.2637 12.8984 95.4629 12.7109 95.6738 12.4883C95.8848 12.2539 96.1016 12.002 96.3242 11.7324C96.5586 11.4512 96.7754 11.1816 96.9746 10.9238C97.1738 10.666 97.3496 10.4375 97.502 10.2383C97.666 10.0391 97.7832 9.89258 97.8535 9.79883C97.9473 9.69336 98.041 9.63477 98.1348 9.62305C98.2285 9.59961 98.2988 9.62305 98.3457 9.69336C98.3926 9.76367 98.3984 9.86914 98.3633 10.0098C98.3398 10.1504 98.2578 10.3145 98.1172 10.502ZM92.9668 11.2754C93.0254 11.041 93.0957 10.7656 93.1777 10.4492C93.2598 10.1328 93.3301 9.82812 93.3887 9.53516C93.4473 9.24219 93.4883 9.00195 93.5117 8.81445C93.5469 8.61523 93.541 8.52148 93.4941 8.5332C93.4355 8.54492 93.3711 8.5625 93.3008 8.58594C93.2422 8.60938 93.166 8.62695 93.0723 8.63867C92.9785 8.65039 92.8848 8.66797 92.791 8.69141C92.8848 8.50391 92.9375 8.35156 92.9492 8.23438C92.9727 8.10547 92.9785 8.00586 92.9668 7.93555C92.9551 7.85352 92.9316 7.78906 92.8965 7.74219C92.7676 7.63672 92.5391 7.72461 92.2109 8.00586C91.8945 8.27539 91.5254 8.7793 91.1035 9.51758C90.9277 9.82227 90.7871 10.1504 90.6816 10.502C90.5762 10.8418 90.5 11.1641 90.4531 11.4688C90.418 11.7734 90.4121 12.043 90.4355 12.2773C90.459 12.5 90.5059 12.6465 90.5762 12.7168C90.7051 12.8457 90.8516 12.9102 91.0156 12.9102C91.1797 12.8984 91.3438 12.8516 91.5078 12.7695C91.6836 12.6758 91.8535 12.5586 92.0176 12.418C92.1934 12.2773 92.3457 12.1309 92.4746 11.9785C92.6152 11.8262 92.7266 11.6855 92.8086 11.5566C92.9023 11.4277 92.9551 11.334 92.9668 11.2754ZM96.2715 13.9121C96.1895 14.041 96.1016 14.123 96.0078 14.1582C95.9023 14.2051 95.8145 14.2109 95.7441 14.1758C95.6621 14.1523 95.6094 14.0938 95.5859 14C95.5625 13.9062 95.5859 13.7891 95.6562 13.6484C95.6914 13.5781 95.7734 13.4199 95.9023 13.1738C96.0195 12.9277 96.166 12.6348 96.3418 12.2949C96.5059 11.9434 96.6875 11.5684 96.8867 11.1699C97.0859 10.7598 97.2734 10.373 97.4492 10.0098C97.6367 9.64648 97.8066 9.32422 97.959 9.04297C98.1113 8.75 98.2227 8.53906 98.293 8.41016C98.1641 8.29297 98.0762 8.21094 98.0293 8.16406C97.9824 8.10547 97.9473 7.98828 97.9238 7.8125C97.9004 7.66016 97.9355 7.46094 98.0293 7.21484C98.123 6.96875 98.2461 6.73438 98.3984 6.51172C98.5508 6.27734 98.7207 6.07812 98.9082 5.91406C99.0957 5.75 99.2773 5.66797 99.4531 5.66797C99.7812 5.66797 100.01 5.77344 100.139 5.98438C100.279 6.19531 100.361 6.41211 100.385 6.63477C100.408 6.78711 100.396 6.98047 100.35 7.21484C100.303 7.44922 100.215 7.66016 100.086 7.84766C100.121 7.87109 100.168 7.90039 100.227 7.93555C100.285 7.95898 100.379 7.9707 100.508 7.9707C100.695 7.9707 100.824 7.95898 100.895 7.93555C100.977 7.91211 101.1 7.90039 101.264 7.90039C101.463 7.90039 101.627 7.95312 101.756 8.05859C101.885 8.15234 101.99 8.27539 102.072 8.42773C102.154 8.56836 102.213 8.72656 102.248 8.90234C102.295 9.06641 102.324 9.21875 102.336 9.35938C102.371 9.65234 102.295 9.95703 102.107 10.2734C101.92 10.5898 101.691 10.9355 101.422 11.3105C101.258 11.5449 101.094 11.8086 100.93 12.1016C100.766 12.3945 100.695 12.6582 100.719 12.8926C100.742 13.0449 100.783 13.168 100.842 13.2617C100.9 13.3555 101.064 13.4023 101.334 13.4023C101.533 13.4023 101.75 13.332 101.984 13.1914C102.23 13.0391 102.477 12.8516 102.723 12.6289C102.98 12.3945 103.232 12.1426 103.479 11.873C103.725 11.5918 103.953 11.3223 104.164 11.0645C104.375 10.7949 104.551 10.5547 104.691 10.3438C104.844 10.1328 104.955 9.98047 105.025 9.88672C105.084 9.79297 105.16 9.72852 105.254 9.69336C105.348 9.6582 105.43 9.6582 105.5 9.69336C105.57 9.72852 105.611 9.79883 105.623 9.9043C105.646 10.0098 105.605 10.1504 105.5 10.3262C105.43 10.4434 105.307 10.6309 105.131 10.8887C104.967 11.1465 104.762 11.4336 104.516 11.75C104.281 12.0664 104.018 12.3945 103.725 12.7344C103.432 13.0625 103.121 13.3672 102.793 13.6484C102.477 13.918 102.154 14.1406 101.826 14.3164C101.51 14.4922 101.205 14.5801 100.912 14.5801C100.607 14.5801 100.355 14.5215 100.156 14.4043C99.957 14.2871 99.793 14.1465 99.6641 13.9824C99.5469 13.8066 99.459 13.6191 99.4004 13.4199C99.3535 13.209 99.3359 13.0156 99.3477 12.8398C99.3594 12.6992 99.3945 12.5527 99.4531 12.4004C99.5234 12.2363 99.5996 12.0723 99.6816 11.9082C99.7754 11.7324 99.8691 11.5625 99.9629 11.3984C100.068 11.2227 100.162 11.0527 100.244 10.8887C100.443 10.5488 100.602 10.2617 100.719 10.0273C100.848 9.78125 100.912 9.57617 100.912 9.41211C100.912 9.30664 100.889 9.21289 100.842 9.13086C100.795 9.04883 100.719 9.00781 100.613 9.00781C100.543 9.00781 100.49 9.01367 100.455 9.02539C100.432 9.02539 100.402 9.02539 100.367 9.02539C100.344 9.02539 100.303 9.03125 100.244 9.04297C100.197 9.04297 100.121 9.04297 100.016 9.04297C99.8633 9.04297 99.7344 9.01953 99.6289 8.97266C99.5234 8.92578 99.4238 8.89062 99.3301 8.86719C99.2832 8.94922 99.1777 9.125 99.0137 9.39453C98.8496 9.66406 98.6562 9.98047 98.4336 10.3438C98.2227 10.707 97.9941 11.0879 97.748 11.4863C97.5137 11.8848 97.291 12.2598 97.0801 12.6113C96.8691 12.9512 96.6934 13.2441 96.5527 13.4902C96.4004 13.7246 96.3066 13.8652 96.2715 13.9121ZM110.738 9.55273C110.785 9.48242 110.844 9.44141 110.914 9.42969C110.996 9.40625 111.061 9.41211 111.107 9.44727C111.154 9.48242 111.178 9.54102 111.178 9.62305C111.189 9.70508 111.16 9.81641 111.09 9.95703C110.855 10.4023 110.545 10.8828 110.158 11.3984C109.783 11.9141 109.385 12.4004 108.963 12.8574C108.541 13.3027 108.131 13.6719 107.732 13.9648C107.334 14.2578 107 14.4043 106.73 14.4043C106.344 14.4043 106.021 14.3281 105.764 14.1758C105.506 14.0234 105.301 13.8359 105.148 13.6133C105.008 13.3906 104.908 13.1504 104.85 12.8926C104.791 12.623 104.773 12.377 104.797 12.1543C104.809 11.9668 104.85 11.6328 104.92 11.1523C104.99 10.6602 105.084 10.0977 105.201 9.46484C105.318 8.82031 105.447 8.13477 105.588 7.4082C105.74 6.66992 105.898 5.96094 106.062 5.28125C105.863 5.30469 105.664 5.32812 105.465 5.35156C105.266 5.375 105.084 5.38672 104.92 5.38672C104.545 5.38672 104.193 5.3457 103.865 5.26367C103.525 5.16992 103.273 5.08203 103.109 5C103.016 4.95313 102.975 4.88867 102.986 4.80664C102.998 4.71289 103.033 4.625 103.092 4.54297C103.15 4.44922 103.227 4.37305 103.32 4.31445C103.402 4.24414 103.479 4.20898 103.549 4.20898C103.771 4.23242 104.012 4.25586 104.27 4.2793C104.527 4.29102 104.809 4.29102 105.113 4.2793C105.336 4.26758 105.547 4.25 105.746 4.22656C105.957 4.20312 106.162 4.17383 106.361 4.13867C106.514 3.57617 106.66 3.08984 106.801 2.67969C106.953 2.25781 107.088 1.96484 107.205 1.80078C107.24 1.74219 107.316 1.69531 107.434 1.66016C107.562 1.61328 107.697 1.58398 107.838 1.57227C107.979 1.54883 108.113 1.54883 108.242 1.57227C108.371 1.58398 108.465 1.625 108.523 1.69531C108.582 1.78906 108.605 2.0293 108.594 2.41602C108.582 2.80273 108.518 3.29492 108.4 3.89258C108.893 3.89258 109.326 3.92187 109.701 3.98047C110.088 4.02734 110.416 4.08594 110.686 4.15625C110.955 4.21484 111.172 4.2793 111.336 4.34961C111.5 4.4082 111.623 4.44922 111.705 4.47266C111.787 4.49609 111.828 4.55469 111.828 4.64844C111.84 4.74219 111.822 4.8418 111.775 4.94727C111.74 5.04102 111.676 5.12305 111.582 5.19336C111.488 5.26367 111.383 5.28711 111.266 5.26367C111.148 5.25195 111.014 5.22852 110.861 5.19336C110.721 5.1582 110.545 5.12891 110.334 5.10547C110.135 5.08203 109.895 5.05859 109.613 5.03516C109.332 5.01172 109.004 5 108.629 5C108.559 5 108.477 5.00586 108.383 5.01758C108.301 5.01758 108.213 5.01758 108.119 5.01758C108.072 5.20508 108.025 5.39258 107.979 5.58008C107.943 5.75586 107.891 5.94336 107.82 6.14258C107.668 6.61133 107.492 7.12109 107.293 7.67188C107.117 8.15234 106.906 8.70312 106.66 9.32422C106.414 9.94531 106.139 10.6074 105.834 11.3105C105.764 11.8145 105.77 12.2012 105.852 12.4707C105.945 12.7285 106.057 12.916 106.186 13.0332C106.338 13.1621 106.525 13.2324 106.748 13.2441C106.924 13.2676 107.135 13.209 107.381 13.0684C107.639 12.916 107.902 12.7168 108.172 12.4707C108.441 12.2246 108.711 11.9551 108.98 11.6621C109.262 11.3691 109.52 11.082 109.754 10.8008C109.988 10.5195 110.193 10.2676 110.369 10.0449C110.545 9.81055 110.668 9.64648 110.738 9.55273ZM117.646 10.3438C117.295 10.8594 116.896 11.3633 116.451 11.8555C116.006 12.3359 115.531 12.7695 115.027 13.1562C114.535 13.5312 114.025 13.8359 113.498 14.0703C112.982 14.3047 112.479 14.4219 111.986 14.4219C111.729 14.4219 111.447 14.3574 111.143 14.2285C110.85 14.1113 110.58 13.9238 110.334 13.666C110.088 13.4082 109.889 13.0742 109.736 12.6641C109.596 12.2539 109.555 11.7559 109.613 11.1699C109.66 10.6895 109.807 10.1855 110.053 9.6582C110.311 9.11914 110.621 8.62695 110.984 8.18164C111.359 7.73633 111.775 7.36719 112.232 7.07422C112.701 6.78125 113.17 6.63477 113.639 6.63477C114.084 6.63477 114.406 6.74609 114.605 6.96875C114.805 7.19141 114.893 7.4668 114.869 7.79492C114.834 8.1582 114.729 8.49219 114.553 8.79688C114.389 9.10156 114.189 9.37695 113.955 9.62305C113.721 9.86914 113.469 10.0918 113.199 10.291C112.941 10.4902 112.695 10.6719 112.461 10.8359C112.203 11.0117 111.957 11.1816 111.723 11.3457C111.488 11.498 111.283 11.6387 111.107 11.7676C111.119 12.0605 111.172 12.3066 111.266 12.5059C111.359 12.7051 111.477 12.8691 111.617 12.998C111.758 13.1152 111.916 13.2031 112.092 13.2617C112.279 13.3086 112.467 13.332 112.654 13.332C113.053 13.332 113.469 13.209 113.902 12.9629C114.336 12.7051 114.758 12.4004 115.168 12.0488C115.59 11.6855 115.977 11.3105 116.328 10.9238C116.691 10.5371 116.99 10.2031 117.225 9.92188C117.307 9.82812 117.389 9.77539 117.471 9.76367C117.564 9.74023 117.635 9.75195 117.682 9.79883C117.74 9.83398 117.77 9.9043 117.77 10.0098C117.77 10.1035 117.729 10.2148 117.646 10.3438ZM113.146 7.63672C113.006 7.63672 112.836 7.70703 112.637 7.84766C112.449 7.98828 112.262 8.19336 112.074 8.46289C111.887 8.7207 111.711 9.04297 111.547 9.42969C111.383 9.80469 111.26 10.2383 111.178 10.7305C111.318 10.625 111.471 10.5195 111.635 10.4141C111.799 10.2969 111.963 10.1738 112.127 10.0449C112.631 9.6582 112.982 9.31836 113.182 9.02539C113.381 8.73242 113.492 8.48047 113.516 8.26953C113.539 8.04688 113.516 7.88867 113.445 7.79492C113.375 7.68945 113.275 7.63672 113.146 7.63672ZM127.016 10.6426C126.957 11.0059 126.898 11.3516 126.84 11.6797C126.793 12.0078 126.764 12.2715 126.752 12.4707C126.74 12.7637 126.793 12.9746 126.91 13.1035C127.027 13.2324 127.156 13.2969 127.297 13.2969C127.461 13.2969 127.66 13.2148 127.895 13.0508C128.141 12.8867 128.398 12.6816 128.668 12.4355C128.938 12.1895 129.207 11.9199 129.477 11.627C129.746 11.334 129.992 11.0586 130.215 10.8008C130.449 10.5312 130.643 10.2969 130.795 10.0977C130.959 9.89844 131.07 9.76953 131.129 9.71094C131.199 9.64062 131.27 9.59961 131.34 9.58789C131.422 9.57617 131.486 9.58789 131.533 9.62305C131.58 9.6582 131.604 9.72266 131.604 9.81641C131.604 9.91016 131.557 10.0273 131.463 10.168C131.322 10.3906 131.141 10.6543 130.918 10.959C130.695 11.252 130.449 11.5566 130.18 11.873C129.91 12.1895 129.623 12.5 129.318 12.8047C129.025 13.1094 128.727 13.3789 128.422 13.6133C128.129 13.8477 127.842 14.0352 127.561 14.1758C127.291 14.3281 127.045 14.4043 126.822 14.4043C126.658 14.4043 126.5 14.3574 126.348 14.2637C126.207 14.1699 126.078 14.0469 125.961 13.8945C125.844 13.7422 125.75 13.5723 125.68 13.3848C125.621 13.1973 125.598 13.0098 125.609 12.8223C125.621 12.7402 125.639 12.5996 125.662 12.4004C125.17 12.9512 124.672 13.3906 124.168 13.7188C123.676 14.0352 123.201 14.1934 122.744 14.1934C122.58 14.1934 122.404 14.1523 122.217 14.0703C122.029 13.9883 121.859 13.8535 121.707 13.666C121.566 13.4785 121.449 13.2324 121.355 12.9277C121.262 12.623 121.227 12.2539 121.25 11.8203C121.285 11.1406 121.42 10.4961 121.654 9.88672C121.889 9.27734 122.182 8.75 122.533 8.30469C122.896 7.84766 123.301 7.49023 123.746 7.23242C124.203 6.96289 124.66 6.82812 125.117 6.82812C125.316 6.82812 125.498 6.88086 125.662 6.98633C125.826 7.08008 125.967 7.20898 126.084 7.37305C126.201 7.52539 126.295 7.69531 126.365 7.88281C126.447 8.07031 126.506 8.24609 126.541 8.41016C126.623 8.07031 126.699 7.73633 126.77 7.4082C126.84 7.08008 126.91 6.76953 126.98 6.47656C127.098 6.04297 127.221 5.57422 127.35 5.07031C127.467 4.63672 127.602 4.13867 127.754 3.57617C127.906 3.01367 128.076 2.42188 128.264 1.80078C128.381 1.70703 128.492 1.63672 128.598 1.58984C128.703 1.54297 128.803 1.50781 128.896 1.48438C129.002 1.44922 129.102 1.43164 129.195 1.43164C129.312 1.43164 129.418 1.44922 129.512 1.48438C129.605 1.50781 129.682 1.58398 129.74 1.71289C129.811 1.83008 129.857 2.01172 129.881 2.25781C129.904 2.50391 129.904 2.83789 129.881 3.25977C129.857 3.77539 129.764 4.33789 129.6 4.94727C129.447 5.55664 129.242 6.18945 128.984 6.8457C128.727 7.49023 128.428 8.14062 128.088 8.79688C127.76 9.44141 127.402 10.0566 127.016 10.6426ZM125.979 10.8711C126.025 10.6484 126.066 10.4258 126.102 10.2031C126.148 9.98047 126.201 9.75195 126.26 9.51758C126.236 9.5293 126.213 9.54102 126.189 9.55273C126.178 9.56445 126.16 9.57617 126.137 9.58789C126.008 9.64648 125.92 9.64648 125.873 9.58789C125.826 9.51758 125.803 9.41211 125.803 9.27148C125.803 9.20117 125.797 9.07812 125.785 8.90234C125.773 8.71484 125.738 8.52734 125.68 8.33984C125.633 8.14062 125.557 7.9707 125.451 7.83008C125.346 7.67773 125.199 7.60156 125.012 7.60156C124.742 7.60156 124.467 7.74219 124.186 8.02344C123.904 8.29297 123.641 8.62695 123.395 9.02539C123.148 9.41211 122.943 9.82812 122.779 10.2734C122.615 10.7188 122.521 11.1172 122.498 11.4688C122.475 12.0312 122.545 12.4355 122.709 12.6816C122.873 12.9277 123.096 13.0508 123.377 13.0508C123.588 13.0508 123.816 12.9688 124.062 12.8047C124.32 12.6406 124.566 12.4414 124.801 12.207C125.047 11.9727 125.27 11.7324 125.469 11.4863C125.68 11.2402 125.85 11.0352 125.979 10.8711ZM139.145 10.502C138.98 10.7363 138.77 11.0293 138.512 11.3809C138.254 11.7207 137.984 12.0664 137.703 12.418C137.434 12.7578 137.164 13.0742 136.895 13.3672C136.637 13.6484 136.42 13.8477 136.244 13.9648C136.127 14.0352 135.992 14.0938 135.84 14.1406C135.688 14.1875 135.529 14.2168 135.365 14.2285C135.213 14.2402 135.066 14.2285 134.926 14.1934C134.785 14.1699 134.662 14.123 134.557 14.0527C134.451 13.9707 134.363 13.8535 134.293 13.7012C134.234 13.5723 134.176 13.4023 134.117 13.1914C134.07 12.9805 134.053 12.7168 134.064 12.4004C133.783 12.8691 133.473 13.2324 133.133 13.4902C132.793 13.7363 132.471 13.918 132.166 14.0352C131.814 14.1641 131.463 14.2402 131.111 14.2637C130.947 14.2637 130.771 14.2051 130.584 14.0879C130.396 13.9824 130.238 13.8125 130.109 13.5781C129.98 13.332 129.898 13.0215 129.863 12.6465C129.828 12.2598 129.875 11.8027 130.004 11.2754C130.168 10.5605 130.426 9.91016 130.777 9.32422C131.141 8.73828 131.533 8.24023 131.955 7.83008C132.377 7.4082 132.793 7.0918 133.203 6.88086C133.613 6.66992 133.953 6.57617 134.223 6.59961C134.539 6.6582 134.797 6.75195 134.996 6.88086C135.16 6.99805 135.266 7.17383 135.312 7.4082C135.371 7.63086 135.277 7.92969 135.031 8.30469C135.195 8.26953 135.33 8.24609 135.436 8.23438C135.553 8.22266 135.641 8.2168 135.699 8.2168C135.77 8.2168 135.816 8.22266 135.84 8.23438C135.852 8.25781 135.857 8.31055 135.857 8.39258C135.857 8.46289 135.84 8.59766 135.805 8.79688C135.77 8.99609 135.717 9.26562 135.646 9.60547C135.576 9.94531 135.482 10.3848 135.365 10.9238C135.342 11.0293 135.318 11.1289 135.295 11.2227C135.283 11.3047 135.266 11.3926 135.242 11.4863C135.23 11.5684 135.213 11.668 135.189 11.7852C135.166 11.9023 135.137 12.0488 135.102 12.2246C135.09 12.3301 135.084 12.4473 135.084 12.5762C135.096 12.6934 135.119 12.8047 135.154 12.9102C135.189 13.0156 135.242 13.1035 135.312 13.1738C135.395 13.2324 135.506 13.2617 135.646 13.2617C135.764 13.2617 135.916 13.1914 136.104 13.0508C136.291 12.8984 136.49 12.7109 136.701 12.4883C136.912 12.2539 137.129 12.002 137.352 11.7324C137.586 11.4512 137.803 11.1816 138.002 10.9238C138.201 10.666 138.377 10.4375 138.529 10.2383C138.693 10.0391 138.811 9.89258 138.881 9.79883C138.975 9.69336 139.068 9.63477 139.162 9.62305C139.256 9.59961 139.326 9.62305 139.373 9.69336C139.42 9.76367 139.426 9.86914 139.391 10.0098C139.367 10.1504 139.285 10.3145 139.145 10.502ZM133.994 11.2754C134.053 11.041 134.123 10.7656 134.205 10.4492C134.287 10.1328 134.357 9.82812 134.416 9.53516C134.475 9.24219 134.516 9.00195 134.539 8.81445C134.574 8.61523 134.568 8.52148 134.521 8.5332C134.463 8.54492 134.398 8.5625 134.328 8.58594C134.27 8.60938 134.193 8.62695 134.1 8.63867C134.006 8.65039 133.912 8.66797 133.818 8.69141C133.912 8.50391 133.965 8.35156 133.977 8.23438C134 8.10547 134.006 8.00586 133.994 7.93555C133.982 7.85352 133.959 7.78906 133.924 7.74219C133.795 7.63672 133.566 7.72461 133.238 8.00586C132.922 8.27539 132.553 8.7793 132.131 9.51758C131.955 9.82227 131.814 10.1504 131.709 10.502C131.604 10.8418 131.527 11.1641 131.48 11.4688C131.445 11.7734 131.439 12.043 131.463 12.2773C131.486 12.5 131.533 12.6465 131.604 12.7168C131.732 12.8457 131.879 12.9102 132.043 12.9102C132.207 12.8984 132.371 12.8516 132.535 12.7695C132.711 12.6758 132.881 12.5586 133.045 12.418C133.221 12.2773 133.373 12.1309 133.502 11.9785C133.643 11.8262 133.754 11.6855 133.836 11.5566C133.93 11.4277 133.982 11.334 133.994 11.2754ZM146.791 17.2695C146.205 17.2695 145.672 17.1289 145.191 16.8477C144.723 16.5664 144.318 16.1797 143.979 15.6875C143.65 15.1953 143.398 14.6211 143.223 13.9648C143.059 13.2969 142.988 12.5879 143.012 11.8379C143.035 11.1348 143.123 10.373 143.275 9.55273C143.439 8.73242 143.668 7.91211 143.961 7.0918C144.254 6.25977 144.605 5.46289 145.016 4.70117C145.438 3.92773 145.918 3.24805 146.457 2.66211C146.996 2.07617 147.594 1.60742 148.25 1.25586C148.906 0.892578 149.627 0.710938 150.412 0.710938C150.893 0.710938 151.297 0.810547 151.625 1.00977C151.965 1.19727 152.234 1.44922 152.434 1.76562C152.645 2.08203 152.791 2.43945 152.873 2.83789C152.955 3.23633 152.99 3.64062 152.979 4.05078C152.955 4.4375 152.896 4.8125 152.803 5.17578C152.721 5.53906 152.598 5.86719 152.434 6.16016C152.281 6.44141 152.088 6.66992 151.854 6.8457C151.631 7.00977 151.373 7.0918 151.08 7.0918C150.939 7.08008 150.805 7.0332 150.676 6.95117C150.559 6.88086 150.436 6.77539 150.307 6.63477C150.189 6.49414 150.078 6.28906 149.973 6.01953C150.289 5.89062 150.535 5.66797 150.711 5.35156C150.898 5.02344 151.039 4.68359 151.133 4.33203C151.238 3.93359 151.309 3.48828 151.344 2.99609C151.367 2.51562 151.268 2.16406 151.045 1.94141C150.822 1.71875 150.57 1.60742 150.289 1.60742C149.738 1.60742 149.158 1.89453 148.549 2.46875C147.939 3.04297 147.371 3.82227 146.844 4.80664C146.328 5.7793 145.889 6.91602 145.525 8.2168C145.174 9.51758 144.969 10.8945 144.91 12.3477C144.887 13.0039 144.928 13.5605 145.033 14.0176C145.15 14.4746 145.309 14.8496 145.508 15.1426C145.719 15.4355 145.953 15.6465 146.211 15.7754C146.469 15.9043 146.727 15.9688 146.984 15.9688C147.395 15.9688 147.781 15.8809 148.145 15.7051C148.508 15.5293 148.836 15.3125 149.129 15.0547C149.434 14.7969 149.691 14.5273 149.902 14.2461C150.125 13.9766 150.295 13.7363 150.412 13.5254C150.494 13.373 150.582 13.2793 150.676 13.2441C150.77 13.209 150.852 13.2207 150.922 13.2793C150.992 13.3262 151.039 13.4082 151.062 13.5254C151.086 13.6309 151.062 13.7598 150.992 13.9121C150.793 14.3105 150.547 14.709 150.254 15.1074C149.973 15.5059 149.65 15.8633 149.287 16.1797C148.936 16.5078 148.549 16.7715 148.127 16.9707C147.705 17.1699 147.26 17.2695 146.791 17.2695ZM158.094 11.2051C157.977 11.6504 157.818 12.0664 157.619 12.4531C157.42 12.8398 157.18 13.1738 156.898 13.4551C156.629 13.7363 156.318 13.9531 155.967 14.1055C155.627 14.2695 155.252 14.3516 154.842 14.3516C154.361 14.3516 153.98 14.2461 153.699 14.0352C153.43 13.8359 153.225 13.584 153.084 13.2793C152.955 12.9746 152.879 12.6406 152.855 12.2773C152.82 11.9141 152.803 11.5742 152.803 11.2578C152.803 11.0352 152.832 10.7891 152.891 10.5195C152.938 10.25 153.008 9.97461 153.102 9.69336C153.195 9.41211 153.312 9.13086 153.453 8.84961C153.605 8.56836 153.781 8.31055 153.98 8.07617C154.051 7.87695 154.156 7.70117 154.297 7.54883C154.449 7.39648 154.619 7.27344 154.807 7.17969C155.006 7.07422 155.217 6.99805 155.439 6.95117C155.662 6.89258 155.879 6.86328 156.09 6.86328C156.125 6.86328 156.154 6.86914 156.178 6.88086C156.213 6.89258 156.248 6.9043 156.283 6.91602C156.436 6.92773 156.623 6.98633 156.846 7.0918C157.08 7.19727 157.303 7.35547 157.514 7.56641C157.736 7.77734 157.924 8.04688 158.076 8.375C158.229 8.69141 158.305 9.07812 158.305 9.53516C158.305 9.62891 158.299 9.74609 158.287 9.88672C158.275 10.0156 158.264 10.127 158.252 10.2207C158.521 10.1152 158.803 9.98633 159.096 9.83398C159.389 9.68164 159.67 9.52344 159.939 9.35938C160.221 9.18359 160.479 9.00781 160.713 8.83203C160.947 8.65625 161.135 8.49805 161.275 8.35742C161.393 8.25195 161.492 8.19336 161.574 8.18164C161.656 8.16992 161.715 8.19336 161.75 8.25195C161.785 8.31055 161.791 8.39258 161.768 8.49805C161.744 8.60352 161.68 8.7207 161.574 8.84961C161.516 8.91992 161.363 9.06055 161.117 9.27148C160.883 9.48242 160.602 9.71094 160.273 9.95703C159.945 10.2031 159.588 10.4434 159.201 10.6777C158.814 10.9121 158.445 11.0879 158.094 11.2051ZM155.123 8.5332C155.088 8.63867 155.07 8.75 155.07 8.86719C155.07 9.05469 155.082 9.25391 155.105 9.46484C155.129 9.66406 155.188 9.8457 155.281 10.0098C155.375 10.1738 155.521 10.3145 155.721 10.4316C155.932 10.5371 156.219 10.5898 156.582 10.5898C156.641 10.5898 156.699 10.5898 156.758 10.5898C156.816 10.5781 156.875 10.5664 156.934 10.5547C156.969 10.4023 156.998 10.2676 157.021 10.1504C157.057 10.0215 157.074 9.91016 157.074 9.81641C157.098 9.59375 157.098 9.36523 157.074 9.13086C157.051 8.89648 157.004 8.68555 156.934 8.49805C156.875 8.29883 156.793 8.14062 156.688 8.02344C156.594 7.89453 156.477 7.83008 156.336 7.83008C156.113 7.83008 155.896 7.89453 155.686 8.02344C155.486 8.14062 155.299 8.31055 155.123 8.5332ZM153.998 11.627C153.998 11.8379 154.01 12.0488 154.033 12.2598C154.057 12.459 154.104 12.6406 154.174 12.8047C154.244 12.957 154.338 13.0859 154.455 13.1914C154.572 13.2852 154.725 13.332 154.912 13.332C155.123 13.332 155.316 13.2852 155.492 13.1914C155.668 13.0859 155.826 12.957 155.967 12.8047C156.107 12.6406 156.23 12.459 156.336 12.2598C156.453 12.0488 156.553 11.832 156.635 11.6094C156.553 11.6211 156.471 11.6328 156.389 11.6445C156.318 11.6445 156.236 11.6445 156.143 11.6445C155.697 11.6445 155.311 11.5156 154.982 11.2578C154.666 10.9883 154.42 10.6484 154.244 10.2383C154.174 10.4844 154.115 10.7246 154.068 10.959C154.021 11.1934 153.998 11.416 153.998 11.627ZM162.453 13.4023C162.523 13.4492 162.611 13.4727 162.717 13.4727C162.834 13.4727 162.945 13.4492 163.051 13.4023C163.168 13.3555 163.273 13.291 163.367 13.209C163.473 13.127 163.549 13.0215 163.596 12.8926C163.643 12.7637 163.643 12.582 163.596 12.3477C163.549 12.1016 163.473 11.8438 163.367 11.5742C163.273 11.293 163.168 11.0117 163.051 10.7305C162.934 10.4492 162.834 10.1914 162.752 9.95703C162.682 9.78125 162.623 9.61719 162.576 9.46484C162.529 9.33594 162.482 9.21289 162.436 9.0957C162.4 8.9668 162.371 8.87891 162.348 8.83203C162.289 8.92578 162.184 9.07812 162.031 9.28906C161.891 9.5 161.732 9.72266 161.557 9.95703C161.393 10.1797 161.234 10.3906 161.082 10.5898C160.93 10.7773 160.824 10.9062 160.766 10.9766C160.672 11.082 160.578 11.1465 160.484 11.1699C160.402 11.1816 160.332 11.1641 160.273 11.1172C160.215 11.0586 160.18 10.9824 160.168 10.8887C160.168 10.7832 160.215 10.6602 160.309 10.5195C160.379 10.4258 160.484 10.2793 160.625 10.0801C160.766 9.86914 160.906 9.6582 161.047 9.44727C161.188 9.22461 161.316 9.03125 161.434 8.86719C161.551 8.69141 161.615 8.58594 161.627 8.55078C161.65 8.45703 161.615 8.33398 161.521 8.18164C161.439 8.0293 161.428 7.85352 161.486 7.6543C161.533 7.49023 161.639 7.30273 161.803 7.0918C161.967 6.86914 162.16 6.66992 162.383 6.49414C162.605 6.31836 162.834 6.18945 163.068 6.10742C163.303 6.01367 163.514 6.01367 163.701 6.10742C163.854 6.20117 163.977 6.30664 164.07 6.42383C164.164 6.5293 164.199 6.64062 164.176 6.75781C164.152 6.81641 164.117 6.89258 164.07 6.98633C164.023 7.08008 163.953 7.19727 163.859 7.33789C163.766 7.4668 163.631 7.63672 163.455 7.84766C163.49 8.11719 163.537 8.36328 163.596 8.58594C163.666 8.80859 163.73 9.00195 163.789 9.16602C163.859 9.36523 163.936 9.54688 164.018 9.71094C164.123 9.92188 164.234 10.1387 164.352 10.3613C164.469 10.584 164.574 10.8066 164.668 11.0293C164.762 11.2402 164.838 11.4395 164.896 11.627C164.955 11.8145 164.973 11.9727 164.949 12.1016C164.914 12.3008 164.809 12.541 164.633 12.8223C164.469 13.1035 164.258 13.3789 164 13.6484C163.754 13.9062 163.467 14.1289 163.139 14.3164C162.822 14.5039 162.488 14.5977 162.137 14.5977C161.891 14.5977 161.65 14.5215 161.416 14.3691C161.193 14.2168 161 14.041 160.836 13.8418C160.684 13.6309 160.566 13.4258 160.484 13.2266C160.414 13.0273 160.408 12.875 160.467 12.7695C160.537 12.6289 160.602 12.5176 160.66 12.4355C160.719 12.3535 160.807 12.2598 160.924 12.1543C160.971 12.1191 161.029 12.0781 161.1 12.0312C161.158 11.9961 161.24 11.9609 161.346 11.9258C161.451 11.8906 161.574 11.8496 161.715 11.8027C161.832 12.166 161.938 12.4531 162.031 12.6641C162.125 12.8633 162.201 13.0215 162.26 13.1387C162.33 13.2676 162.395 13.3555 162.453 13.4023ZM172.789 9.55273C172.836 9.48242 172.895 9.44141 172.965 9.42969C173.047 9.40625 173.111 9.41211 173.158 9.44727C173.205 9.48242 173.229 9.54102 173.229 9.62305C173.24 9.70508 173.211 9.81641 173.141 9.95703C172.906 10.4023 172.596 10.8828 172.209 11.3984C171.834 11.9141 171.436 12.4004 171.014 12.8574C170.592 13.3027 170.182 13.6719 169.783 13.9648C169.385 14.2578 169.051 14.4043 168.781 14.4043C168.395 14.4043 168.072 14.3281 167.814 14.1758C167.557 14.0234 167.352 13.8359 167.199 13.6133C167.059 13.3906 166.959 13.1504 166.9 12.8926C166.842 12.623 166.824 12.377 166.848 12.1543C166.859 11.9668 166.9 11.6328 166.971 11.1523C167.041 10.6602 167.135 10.0977 167.252 9.46484C167.369 8.82031 167.498 8.13477 167.639 7.4082C167.791 6.66992 167.949 5.96094 168.113 5.28125C167.914 5.30469 167.715 5.32812 167.516 5.35156C167.316 5.375 167.135 5.38672 166.971 5.38672C166.596 5.38672 166.244 5.3457 165.916 5.26367C165.576 5.16992 165.324 5.08203 165.16 5C165.066 4.95313 165.025 4.88867 165.037 4.80664C165.049 4.71289 165.084 4.625 165.143 4.54297C165.201 4.44922 165.277 4.37305 165.371 4.31445C165.453 4.24414 165.529 4.20898 165.6 4.20898C165.822 4.23242 166.062 4.25586 166.32 4.2793C166.578 4.29102 166.859 4.29102 167.164 4.2793C167.387 4.26758 167.598 4.25 167.797 4.22656C168.008 4.20312 168.213 4.17383 168.412 4.13867C168.564 3.57617 168.711 3.08984 168.852 2.67969C169.004 2.25781 169.139 1.96484 169.256 1.80078C169.291 1.74219 169.367 1.69531 169.484 1.66016C169.613 1.61328 169.748 1.58398 169.889 1.57227C170.029 1.54883 170.164 1.54883 170.293 1.57227C170.422 1.58398 170.516 1.625 170.574 1.69531C170.633 1.78906 170.656 2.0293 170.645 2.41602C170.633 2.80273 170.568 3.29492 170.451 3.89258C170.943 3.89258 171.377 3.92187 171.752 3.98047C172.139 4.02734 172.467 4.08594 172.736 4.15625C173.006 4.21484 173.223 4.2793 173.387 4.34961C173.551 4.4082 173.674 4.44922 173.756 4.47266C173.838 4.49609 173.879 4.55469 173.879 4.64844C173.891 4.74219 173.873 4.8418 173.826 4.94727C173.791 5.04102 173.727 5.12305 173.633 5.19336C173.539 5.26367 173.434 5.28711 173.316 5.26367C173.199 5.25195 173.064 5.22852 172.912 5.19336C172.771 5.1582 172.596 5.12891 172.385 5.10547C172.186 5.08203 171.945 5.05859 171.664 5.03516C171.383 5.01172 171.055 5 170.68 5C170.609 5 170.527 5.00586 170.434 5.01758C170.352 5.01758 170.264 5.01758 170.17 5.01758C170.123 5.20508 170.076 5.39258 170.029 5.58008C169.994 5.75586 169.941 5.94336 169.871 6.14258C169.719 6.61133 169.543 7.12109 169.344 7.67188C169.168 8.15234 168.957 8.70312 168.711 9.32422C168.465 9.94531 168.189 10.6074 167.885 11.3105C167.814 11.8145 167.82 12.2012 167.902 12.4707C167.996 12.7285 168.107 12.916 168.236 13.0332C168.389 13.1621 168.576 13.2324 168.799 13.2441C168.975 13.2676 169.186 13.209 169.432 13.0684C169.689 12.916 169.953 12.7168 170.223 12.4707C170.492 12.2246 170.762 11.9551 171.031 11.6621C171.312 11.3691 171.57 11.082 171.805 10.8008C172.039 10.5195 172.244 10.2676 172.42 10.0449C172.596 9.81055 172.719 9.64648 172.789 9.55273ZM180.752 10.502C180.588 10.7363 180.377 11.0293 180.119 11.3809C179.861 11.7207 179.592 12.0664 179.311 12.418C179.041 12.7578 178.771 13.0742 178.502 13.3672C178.244 13.6484 178.027 13.8477 177.852 13.9648C177.734 14.0352 177.6 14.0938 177.447 14.1406C177.295 14.1875 177.137 14.2168 176.973 14.2285C176.82 14.2402 176.674 14.2285 176.533 14.1934C176.393 14.1699 176.27 14.123 176.164 14.0527C176.059 13.9707 175.971 13.8535 175.9 13.7012C175.842 13.5723 175.783 13.4023 175.725 13.1914C175.678 12.9805 175.66 12.7168 175.672 12.4004C175.391 12.8691 175.08 13.2324 174.74 13.4902C174.4 13.7363 174.078 13.918 173.773 14.0352C173.422 14.1641 173.07 14.2402 172.719 14.2637C172.555 14.2637 172.379 14.2051 172.191 14.0879C172.004 13.9824 171.846 13.8125 171.717 13.5781C171.588 13.332 171.506 13.0215 171.471 12.6465C171.436 12.2598 171.482 11.8027 171.611 11.2754C171.775 10.5605 172.033 9.91016 172.385 9.32422C172.748 8.73828 173.141 8.24023 173.562 7.83008C173.984 7.4082 174.4 7.0918 174.811 6.88086C175.221 6.66992 175.561 6.57617 175.83 6.59961C176.146 6.6582 176.404 6.75195 176.604 6.88086C176.768 6.99805 176.873 7.17383 176.92 7.4082C176.979 7.63086 176.885 7.92969 176.639 8.30469C176.803 8.26953 176.938 8.24609 177.043 8.23438C177.16 8.22266 177.248 8.2168 177.307 8.2168C177.377 8.2168 177.424 8.22266 177.447 8.23438C177.459 8.25781 177.465 8.31055 177.465 8.39258C177.465 8.46289 177.447 8.59766 177.412 8.79688C177.377 8.99609 177.324 9.26562 177.254 9.60547C177.184 9.94531 177.09 10.3848 176.973 10.9238C176.949 11.0293 176.926 11.1289 176.902 11.2227C176.891 11.3047 176.873 11.3926 176.85 11.4863C176.838 11.5684 176.82 11.668 176.797 11.7852C176.773 11.9023 176.744 12.0488 176.709 12.2246C176.697 12.3301 176.691 12.4473 176.691 12.5762C176.703 12.6934 176.727 12.8047 176.762 12.9102C176.797 13.0156 176.85 13.1035 176.92 13.1738C177.002 13.2324 177.113 13.2617 177.254 13.2617C177.371 13.2617 177.523 13.1914 177.711 13.0508C177.898 12.8984 178.098 12.7109 178.309 12.4883C178.52 12.2539 178.736 12.002 178.959 11.7324C179.193 11.4512 179.41 11.1816 179.609 10.9238C179.809 10.666 179.984 10.4375 180.137 10.2383C180.301 10.0391 180.418 9.89258 180.488 9.79883C180.582 9.69336 180.676 9.63477 180.77 9.62305C180.863 9.59961 180.934 9.62305 180.98 9.69336C181.027 9.76367 181.033 9.86914 180.998 10.0098C180.975 10.1504 180.893 10.3145 180.752 10.502ZM175.602 11.2754C175.66 11.041 175.73 10.7656 175.812 10.4492C175.895 10.1328 175.965 9.82812 176.023 9.53516C176.082 9.24219 176.123 9.00195 176.146 8.81445C176.182 8.61523 176.176 8.52148 176.129 8.5332C176.07 8.54492 176.006 8.5625 175.936 8.58594C175.877 8.60938 175.801 8.62695 175.707 8.63867C175.613 8.65039 175.52 8.66797 175.426 8.69141C175.52 8.50391 175.572 8.35156 175.584 8.23438C175.607 8.10547 175.613 8.00586 175.602 7.93555C175.59 7.85352 175.566 7.78906 175.531 7.74219C175.402 7.63672 175.174 7.72461 174.846 8.00586C174.529 8.27539 174.16 8.7793 173.738 9.51758C173.562 9.82227 173.422 10.1504 173.316 10.502C173.211 10.8418 173.135 11.1641 173.088 11.4688C173.053 11.7734 173.047 12.043 173.07 12.2773C173.094 12.5 173.141 12.6465 173.211 12.7168C173.34 12.8457 173.486 12.9102 173.65 12.9102C173.814 12.8984 173.979 12.8516 174.143 12.7695C174.318 12.6758 174.488 12.5586 174.652 12.418C174.828 12.2773 174.98 12.1309 175.109 11.9785C175.25 11.8262 175.361 11.6855 175.443 11.5566C175.537 11.4277 175.59 11.334 175.602 11.2754Z" fill="black"/>
</svg>
