<svg width="67" height="92" viewBox="0 0 67 92" fill="none" xmlns="http://www.w3.org/2000/svg">
<path d="M10.4375 72.3125C9.22917 72.3125 8.04167 72.0625 6.875 71.5625C5.70833 71.1042 4.66667 70.4375 3.75 69.5625C2.83333 68.6875 2.10417 67.6042 1.5625 66.3125C1.02083 65.0625 0.791667 63.625 0.875 62C1 59.1667 1.5625 56.5417 2.5625 54.125C3.5625 51.7083 4.72917 49.625 6.0625 47.875C7.39583 46.125 8.75 44.7708 10.125 43.8125C11.5 42.8125 12.6458 42.3125 13.5625 42.3125C14.1458 42.3125 14.6667 42.5208 15.125 42.9375C15.625 43.3125 16 43.8125 16.25 44.4375C16.5417 45.0208 16.7083 45.6875 16.75 46.4375C16.8333 47.1458 16.75 47.8333 16.5 48.5C16.0833 48.2083 15.3125 48.3125 14.1875 48.8125C13.0625 49.3125 11.8958 50.1667 10.6875 51.375C9.47917 52.5417 8.39583 54 7.4375 55.75C6.47917 57.5 5.9375 59.4583 5.8125 61.625C5.72917 63.0417 5.79167 64.25 6 65.25C6.25 66.25 6.58333 67.0625 7 67.6875C7.45833 68.3125 7.95833 68.7708 8.5 69.0625C9.08333 69.3542 9.6875 69.5 10.3125 69.5C11.8125 69.5 13.1875 68.9375 14.4375 67.8125C15.6875 66.6875 16.8333 65.1042 17.875 63.0625C18.9167 61.0625 19.8958 58.6667 20.8125 55.875C21.7292 53.0417 22.6042 49.9167 23.4375 46.5C23.6875 45.4583 24 44.1667 24.375 42.625C24.7917 41.0833 25.2292 39.4167 25.6875 37.625C26.1458 35.7917 26.625 33.9167 27.125 32C27.6667 30.0417 28.1667 28.1875 28.625 26.4375C29.0833 24.6458 29.5208 23 29.9375 21.5C30.3542 19.9583 30.6875 18.7083 30.9375 17.75C29.5625 17.75 28.1875 17.8333 26.8125 18C25.6458 18.125 24.4375 18.3125 23.1875 18.5625C21.9375 18.7708 20.8958 19.0625 20.0625 19.4375C19.9792 19.3958 19.9167 19.2917 19.875 19.125C19.8333 18.9167 19.7917 18.7083 19.75 18.5C19.7083 18.25 19.6667 17.9792 19.625 17.6875C19.5833 17.3542 19.5833 17.0208 19.625 16.6875C19.6667 16.3958 19.7083 16.0833 19.75 15.75C19.7917 15.375 19.875 15 20 14.625C21.0833 14.2917 22.3333 14.0417 23.75 13.875C25.2083 13.6667 26.5625 13.5208 27.8125 13.4375C29.2708 13.3125 30.7708 13.25 32.3125 13.25C33.4375 13.25 34.6042 13.3125 35.8125 13.4375C36.8542 13.5208 38.0208 13.6458 39.3125 13.8125C40.6042 13.9792 41.8958 14.2292 43.1875 14.5625C43.4792 14.8542 43.6667 15.1875 43.75 15.5625C43.7917 15.7292 43.8125 15.9167 43.8125 16.125C43.8125 16.4583 43.75 16.7708 43.625 17.0625C43.5417 17.3125 43.3958 17.5833 43.1875 17.875C43.0208 18.125 42.7917 18.3333 42.5 18.5C42.0417 18.375 41.4583 18.2917 40.75 18.25C40.0833 18.1667 39.4167 18.0833 38.75 18C38 17.9167 37.2083 17.8542 36.375 17.8125L29.75 47.3125C29.5833 48.0208 29.2917 49.1458 28.875 50.6875C28.4583 52.1875 27.875 53.875 27.125 55.75C26.4167 57.5833 25.5417 59.4792 24.5 61.4375C23.5 63.3958 22.3125 65.1667 20.9375 66.75C19.5625 68.375 18 69.7083 16.25 70.75C14.5 71.7917 12.5625 72.3125 10.4375 72.3125Z" fill="black"/>
<path d="M25.1875 70.0469C24.9062 69.8594 24.7656 69.6562 24.7656 69.4375C24.7344 69.2188 24.7812 69 24.9062 68.7812C25.0312 68.5312 25.2188 68.2812 25.4688 68.0312C25.7188 67.8125 26.0156 67.25 26.3594 66.3438C26.7031 65.4688 27.0625 64.4062 27.4375 63.1562C27.8438 61.875 28.2344 60.4844 28.6094 58.9844C29.0156 57.4844 29.3906 56.0156 29.7344 54.5781C30.0781 53.1406 30.375 51.8125 30.625 50.5938C30.875 49.375 31.0625 48.4062 31.1875 47.6875C31.3438 46.8125 31.5156 45.8594 31.7031 44.8281C31.8594 43.9219 32.0312 42.875 32.2188 41.6875C32.4062 40.4688 32.5781 39.125 32.7344 37.6562L36.4844 35.9688C37.0156 35.7188 37.3906 35.7812 37.6094 36.1562C37.8281 36.5 37.8281 37.2344 37.6094 38.3594C37.5156 38.9219 37.3438 39.8438 37.0938 41.125C36.8438 42.375 36.5469 43.7656 36.2031 45.2969C35.8906 46.7969 35.5469 48.3438 35.1719 49.9375C34.8281 51.5 34.4844 52.8906 34.1406 54.1094C33.8281 55.2656 33.4688 56.5938 33.0625 58.0938C32.3438 60.6562 31.3438 64.1562 30.0625 68.5938C30.5 69.3438 31.3125 69.7188 32.5 69.7188C33.8125 69.7188 35.3281 69.2188 37.0469 68.2188C38.7969 67.2188 40.4844 65.7188 42.1094 63.7188C43.7344 61.7188 45.1562 59.2188 46.375 56.2188C47.625 53.1875 48.4062 49.6562 48.7188 45.625C48.875 43.4375 48.7656 41.5156 48.3906 39.8594C48.0156 38.2031 47.4375 36.8125 46.6562 35.6875C45.9062 34.5625 44.9688 33.7188 43.8438 33.1562C42.75 32.5938 41.5312 32.3125 40.1875 32.3125C37.0312 32.3125 33.7656 33.625 30.3906 36.25L30.1562 32.3594C30.9688 31.4531 31.8906 30.7656 32.9219 30.2969C33.9844 29.7969 34.9688 29.4219 35.875 29.1719C36.9375 28.8906 38.0156 28.7344 39.1094 28.7031C41.1094 28.7031 43.0312 29.0938 44.875 29.875C46.75 30.625 48.3594 31.7812 49.7031 33.3438C51.0781 34.9062 52.125 36.875 52.8438 39.25C53.5625 41.5938 53.8125 44.3438 53.5938 47.5C53.4688 49.3125 53.0938 51.2031 52.4688 53.1719C51.875 55.1094 51.0781 57.0156 50.0781 58.8906C49.1094 60.7656 47.9531 62.5469 46.6094 64.2344C45.2656 65.9219 43.7969 67.3906 42.2031 68.6406C40.6094 69.9219 38.9062 70.9219 37.0938 71.6406C35.2812 72.3906 33.4062 72.7656 31.4688 72.7656C30.875 72.7344 30.2344 72.625 29.5469 72.4375C28.9531 72.2812 28.2812 72.0156 27.5312 71.6406C26.7812 71.2656 26 70.7344 25.1875 70.0469Z" fill="#595959"/>
<path d="M54.5586 71.5391C53.3867 71.5391 52.3203 71.2578 51.3594 70.6953C50.4219 70.1328 49.6133 69.3594 48.9336 68.375C48.2773 67.3906 47.7734 66.2422 47.4219 64.9297C47.0938 63.5938 46.9531 62.1758 47 60.6758C47.0469 59.2695 47.2227 57.7461 47.5273 56.1055C47.8555 54.4648 48.3125 52.8242 48.8984 51.1836C49.4844 49.5195 50.1875 47.9258 51.0078 46.4023C51.8516 44.8555 52.8125 43.4961 53.8906 42.3242C54.9688 41.1523 56.1641 40.2148 57.4766 39.5117C58.7891 38.7852 60.2305 38.4219 61.8008 38.4219C62.7617 38.4219 63.5703 38.6211 64.2266 39.0195C64.9062 39.3945 65.4453 39.8984 65.8438 40.5312C66.2656 41.1641 66.5586 41.8789 66.7227 42.6758C66.8867 43.4727 66.957 44.2812 66.9336 45.1016C66.8867 45.875 66.7695 46.625 66.582 47.3516C66.418 48.0781 66.1719 48.7344 65.8438 49.3203C65.5391 49.8828 65.1523 50.3398 64.6836 50.6914C64.2383 51.0195 63.7227 51.1836 63.1367 51.1836C62.8555 51.1602 62.5859 51.0664 62.3281 50.9023C62.0938 50.7617 61.8477 50.5508 61.5898 50.2695C61.3555 49.9883 61.1328 49.5781 60.9219 49.0391C61.5547 48.7812 62.0469 48.3359 62.3984 47.7031C62.7734 47.0469 63.0547 46.3672 63.2422 45.6641C63.4531 44.8672 63.5938 43.9766 63.6641 42.9922C63.7109 42.0312 63.5117 41.3281 63.0664 40.8828C62.6211 40.4375 62.1172 40.2148 61.5547 40.2148C60.4531 40.2148 59.293 40.7891 58.0742 41.9375C56.8555 43.0859 55.7188 44.6445 54.6641 46.6133C53.6328 48.5586 52.7539 50.832 52.0273 53.4336C51.3242 56.0352 50.9141 58.7891 50.7969 61.6953C50.75 63.0078 50.832 64.1211 51.043 65.0352C51.2773 65.9492 51.5938 66.6992 51.9922 67.2852C52.4141 67.8711 52.8828 68.293 53.3984 68.5508C53.9141 68.8086 54.4297 68.9375 54.9453 68.9375C55.7656 68.9375 56.5391 68.7617 57.2656 68.4102C57.9922 68.0586 58.6484 67.625 59.2344 67.1094C59.8438 66.5938 60.3594 66.0547 60.7812 65.4922C61.2266 64.9531 61.5664 64.4727 61.8008 64.0508C61.9648 63.7461 62.1406 63.5586 62.3281 63.4883C62.5156 63.418 62.6797 63.4414 62.8203 63.5586C62.9609 63.6523 63.0547 63.8164 63.1016 64.0508C63.1484 64.2617 63.1016 64.5195 62.9609 64.8242C62.5625 65.6211 62.0703 66.418 61.4844 67.2148C60.9219 68.0117 60.2773 68.7266 59.5508 69.3594C58.8477 70.0156 58.0742 70.543 57.2305 70.9414C56.3867 71.3398 55.4961 71.5391 54.5586 71.5391Z" fill="#FFBB00"/>
</svg>
